<mxfile host="Electron" agent="Mozilla/5.0 (Windows NT 10.0; Win64; x64) AppleWebKit/537.36 (KHTML, like Gecko) draw.io/27.0.9 Chrome/134.0.6998.205 Electron/35.4.0 Safari/537.36" version="27.0.9">
  <diagram id="C5RBs43oDa-KdzZeNtuy" name="Page-1">
    <mxGraphModel dx="5954" dy="2113" grid="1" gridSize="10" guides="1" tooltips="1" connect="1" arrows="1" fold="1" page="1" pageScale="1" pageWidth="827" pageHeight="1169" math="0" shadow="0">
      <root>
        <mxCell id="WIyWlLk6GJQsqaUBKTNV-0" />
        <mxCell id="WIyWlLk6GJQsqaUBKTNV-1" parent="WIyWlLk6GJQsqaUBKTNV-0" />
        <mxCell id="M7CGMbNuYNeq0SnUNNgH-6" value="ทบทวนสัญลักษณ์" style="swimlane;fontFamily=Sarabun;fontSource=https%3A%2F%2Ffonts.googleapis.com%2Fcss%3Ffamily%3DSarabun;" parent="WIyWlLk6GJQsqaUBKTNV-1" vertex="1">
          <mxGeometry x="-1560" y="30" width="640" height="290" as="geometry" />
        </mxCell>
        <mxCell id="M7CGMbNuYNeq0SnUNNgH-2" value="&lt;font data-font-src=&quot;https://fonts.googleapis.com/css?family=Sarabun&quot; face=&quot;Sarabun&quot;&gt;เริ่มต้น&lt;/font&gt;" style="ellipse;whiteSpace=wrap;html=1;" parent="M7CGMbNuYNeq0SnUNNgH-6" vertex="1">
          <mxGeometry x="20" y="40" width="130" height="30" as="geometry" />
        </mxCell>
        <mxCell id="M7CGMbNuYNeq0SnUNNgH-5" value="" style="endArrow=classic;html=1;rounded=0;" parent="M7CGMbNuYNeq0SnUNNgH-6" edge="1">
          <mxGeometry width="50" height="50" relative="1" as="geometry">
            <mxPoint x="84.5" y="70" as="sourcePoint" />
            <mxPoint x="84.5" y="120" as="targetPoint" />
          </mxGeometry>
        </mxCell>
        <mxCell id="M7CGMbNuYNeq0SnUNNgH-3" value="&lt;font face=&quot;Sarabun&quot;&gt;สิ้นสุด&lt;/font&gt;" style="ellipse;whiteSpace=wrap;html=1;" parent="M7CGMbNuYNeq0SnUNNgH-6" vertex="1">
          <mxGeometry x="150" y="90" width="130" height="30" as="geometry" />
        </mxCell>
        <mxCell id="M7CGMbNuYNeq0SnUNNgH-4" value="" style="endArrow=classic;html=1;rounded=0;" parent="M7CGMbNuYNeq0SnUNNgH-6" edge="1">
          <mxGeometry width="50" height="50" relative="1" as="geometry">
            <mxPoint x="214.5" y="40" as="sourcePoint" />
            <mxPoint x="214.5" y="90" as="targetPoint" />
          </mxGeometry>
        </mxCell>
        <mxCell id="mvioNwK95yMqdUQ73LqQ-0" value="กระบวนการ" style="rounded=0;whiteSpace=wrap;html=1;fontFamily=Sarabun;fontSource=https%3A%2F%2Ffonts.googleapis.com%2Fcss%3Ffamily%3DSarabun;" parent="M7CGMbNuYNeq0SnUNNgH-6" vertex="1">
          <mxGeometry x="320" y="70" width="120" height="30" as="geometry" />
        </mxCell>
        <mxCell id="mvioNwK95yMqdUQ73LqQ-1" value="" style="endArrow=classic;html=1;rounded=0;" parent="M7CGMbNuYNeq0SnUNNgH-6" edge="1">
          <mxGeometry width="50" height="50" relative="1" as="geometry">
            <mxPoint x="379" y="40" as="sourcePoint" />
            <mxPoint x="379.5" y="70" as="targetPoint" />
          </mxGeometry>
        </mxCell>
        <mxCell id="mvioNwK95yMqdUQ73LqQ-2" value="" style="endArrow=classic;html=1;rounded=0;" parent="M7CGMbNuYNeq0SnUNNgH-6" edge="1">
          <mxGeometry width="50" height="50" relative="1" as="geometry">
            <mxPoint x="379.75" y="100" as="sourcePoint" />
            <mxPoint x="380.25" y="130" as="targetPoint" />
          </mxGeometry>
        </mxCell>
        <mxCell id="mvioNwK95yMqdUQ73LqQ-3" value="ประโยคเงื่อนไข" style="rhombus;whiteSpace=wrap;html=1;fontFamily=Sarabun;fontSource=https%3A%2F%2Ffonts.googleapis.com%2Fcss%3Ffamily%3DSarabun;" parent="M7CGMbNuYNeq0SnUNNgH-6" vertex="1">
          <mxGeometry x="490" y="60" width="100" height="60" as="geometry" />
        </mxCell>
        <mxCell id="mvioNwK95yMqdUQ73LqQ-4" value="" style="endArrow=classic;html=1;rounded=0;" parent="M7CGMbNuYNeq0SnUNNgH-6" edge="1">
          <mxGeometry width="50" height="50" relative="1" as="geometry">
            <mxPoint x="539.71" y="30" as="sourcePoint" />
            <mxPoint x="540.21" y="60" as="targetPoint" />
          </mxGeometry>
        </mxCell>
        <mxCell id="mvioNwK95yMqdUQ73LqQ-5" value="" style="endArrow=classic;html=1;rounded=0;" parent="M7CGMbNuYNeq0SnUNNgH-6" edge="1">
          <mxGeometry width="50" height="50" relative="1" as="geometry">
            <mxPoint x="539.71" y="120" as="sourcePoint" />
            <mxPoint x="540" y="175" as="targetPoint" />
          </mxGeometry>
        </mxCell>
        <mxCell id="mvioNwK95yMqdUQ73LqQ-7" value="จริง" style="edgeLabel;html=1;align=center;verticalAlign=middle;resizable=0;points=[];fontFamily=Sarabun;fontSource=https%3A%2F%2Ffonts.googleapis.com%2Fcss%3Ffamily%3DSarabun;" parent="mvioNwK95yMqdUQ73LqQ-5" vertex="1" connectable="0">
          <mxGeometry x="-0.4142" y="-1" relative="1" as="geometry">
            <mxPoint as="offset" />
          </mxGeometry>
        </mxCell>
        <mxCell id="mvioNwK95yMqdUQ73LqQ-6" value="" style="endArrow=classic;html=1;rounded=0;exitX=1;exitY=0.5;exitDx=0;exitDy=0;" parent="M7CGMbNuYNeq0SnUNNgH-6" source="mvioNwK95yMqdUQ73LqQ-3" edge="1">
          <mxGeometry width="50" height="50" relative="1" as="geometry">
            <mxPoint x="620" y="95" as="sourcePoint" />
            <mxPoint x="610" y="175" as="targetPoint" />
            <Array as="points">
              <mxPoint x="610" y="90" />
            </Array>
          </mxGeometry>
        </mxCell>
        <mxCell id="mvioNwK95yMqdUQ73LqQ-8" value="&lt;font data-font-src=&quot;https://fonts.googleapis.com/css?family=Sarabun&quot; face=&quot;Sarabun&quot;&gt;เท็จ&lt;/font&gt;" style="edgeLabel;html=1;align=center;verticalAlign=middle;resizable=0;points=[];" parent="mvioNwK95yMqdUQ73LqQ-6" vertex="1" connectable="0">
          <mxGeometry x="-0.0019" y="-2" relative="1" as="geometry">
            <mxPoint as="offset" />
          </mxGeometry>
        </mxCell>
        <mxCell id="mvioNwK95yMqdUQ73LqQ-9" value="&lt;font data-font-src=&quot;https://fonts.googleapis.com/css?family=Sarabun&quot; face=&quot;Sarabun&quot;&gt;ฟังก์ชัน/โมดูล&lt;/font&gt;" style="shape=process;whiteSpace=wrap;html=1;backgroundOutline=1;" parent="M7CGMbNuYNeq0SnUNNgH-6" vertex="1">
          <mxGeometry x="25" y="180" width="120" height="30" as="geometry" />
        </mxCell>
        <mxCell id="mvioNwK95yMqdUQ73LqQ-11" value="" style="endArrow=classic;html=1;rounded=0;" parent="M7CGMbNuYNeq0SnUNNgH-6" edge="1">
          <mxGeometry width="50" height="50" relative="1" as="geometry">
            <mxPoint x="84.70999999999998" y="150" as="sourcePoint" />
            <mxPoint x="85.20999999999998" y="180" as="targetPoint" />
          </mxGeometry>
        </mxCell>
        <mxCell id="mvioNwK95yMqdUQ73LqQ-12" value="" style="endArrow=classic;html=1;rounded=0;" parent="M7CGMbNuYNeq0SnUNNgH-6" edge="1">
          <mxGeometry width="50" height="50" relative="1" as="geometry">
            <mxPoint x="84.70999999999998" y="210" as="sourcePoint" />
            <mxPoint x="85.20999999999998" y="240" as="targetPoint" />
          </mxGeometry>
        </mxCell>
        <mxCell id="mvioNwK95yMqdUQ73LqQ-13" value="" style="strokeWidth=2;html=1;shape=mxgraph.flowchart.start_2;whiteSpace=wrap;" parent="M7CGMbNuYNeq0SnUNNgH-6" vertex="1">
          <mxGeometry x="205" y="185" width="20" height="20" as="geometry" />
        </mxCell>
        <mxCell id="mvioNwK95yMqdUQ73LqQ-16" value="" style="endArrow=classic;html=1;rounded=0;" parent="M7CGMbNuYNeq0SnUNNgH-6" edge="1">
          <mxGeometry width="50" height="50" relative="1" as="geometry">
            <mxPoint x="214.70999999999998" y="155" as="sourcePoint" />
            <mxPoint x="215.20999999999998" y="185" as="targetPoint" />
          </mxGeometry>
        </mxCell>
        <mxCell id="mvioNwK95yMqdUQ73LqQ-17" value="" style="endArrow=classic;html=1;rounded=0;entryX=0;entryY=0.5;entryDx=0;entryDy=0;entryPerimeter=0;" parent="M7CGMbNuYNeq0SnUNNgH-6" target="mvioNwK95yMqdUQ73LqQ-13" edge="1">
          <mxGeometry width="50" height="50" relative="1" as="geometry">
            <mxPoint x="189.99999999999997" y="155" as="sourcePoint" />
            <mxPoint x="190.49999999999997" y="185" as="targetPoint" />
            <Array as="points">
              <mxPoint x="190" y="180" />
            </Array>
          </mxGeometry>
        </mxCell>
        <mxCell id="mvioNwK95yMqdUQ73LqQ-18" value="" style="endArrow=classic;html=1;rounded=0;entryX=1;entryY=0.5;entryDx=0;entryDy=0;entryPerimeter=0;" parent="M7CGMbNuYNeq0SnUNNgH-6" target="mvioNwK95yMqdUQ73LqQ-13" edge="1">
          <mxGeometry width="50" height="50" relative="1" as="geometry">
            <mxPoint x="239.99999999999997" y="155" as="sourcePoint" />
            <mxPoint x="240.49999999999997" y="185" as="targetPoint" />
            <Array as="points">
              <mxPoint x="240" y="180" />
            </Array>
          </mxGeometry>
        </mxCell>
        <mxCell id="mvioNwK95yMqdUQ73LqQ-19" value="" style="endArrow=classic;html=1;rounded=0;" parent="M7CGMbNuYNeq0SnUNNgH-6" edge="1">
          <mxGeometry width="50" height="50" relative="1" as="geometry">
            <mxPoint x="214.70999999999998" y="205" as="sourcePoint" />
            <mxPoint x="215.20999999999998" y="235" as="targetPoint" />
          </mxGeometry>
        </mxCell>
        <mxCell id="mvioNwK95yMqdUQ73LqQ-20" value="&lt;font data-font-src=&quot;https://fonts.googleapis.com/css?family=Sarabun&quot; face=&quot;Sarabun&quot;&gt;ตัวเชื่อม&lt;/font&gt;" style="text;html=1;align=center;verticalAlign=middle;resizable=0;points=[];autosize=1;strokeColor=none;fillColor=none;" parent="M7CGMbNuYNeq0SnUNNgH-6" vertex="1">
          <mxGeometry x="220" y="190" width="60" height="30" as="geometry" />
        </mxCell>
        <mxCell id="mvioNwK95yMqdUQ73LqQ-25" value="" style="endArrow=classic;html=1;rounded=0;" parent="M7CGMbNuYNeq0SnUNNgH-6" edge="1">
          <mxGeometry width="50" height="50" relative="1" as="geometry">
            <mxPoint x="353.71" y="165" as="sourcePoint" />
            <mxPoint x="354.21" y="195" as="targetPoint" />
          </mxGeometry>
        </mxCell>
        <mxCell id="mvioNwK95yMqdUQ73LqQ-21" value="" style="verticalLabelPosition=bottom;verticalAlign=top;html=1;shape=offPageConnector;rounded=0;size=0.5;" parent="M7CGMbNuYNeq0SnUNNgH-6" vertex="1">
          <mxGeometry x="339" y="195" width="30" height="30" as="geometry" />
        </mxCell>
        <mxCell id="mvioNwK95yMqdUQ73LqQ-26" value="" style="endArrow=classic;html=1;rounded=0;" parent="M7CGMbNuYNeq0SnUNNgH-6" edge="1">
          <mxGeometry width="50" height="50" relative="1" as="geometry">
            <mxPoint x="405.71" y="195" as="sourcePoint" />
            <mxPoint x="406.21" y="225" as="targetPoint" />
          </mxGeometry>
        </mxCell>
        <mxCell id="mvioNwK95yMqdUQ73LqQ-27" value="" style="verticalLabelPosition=bottom;verticalAlign=top;html=1;shape=offPageConnector;rounded=0;size=0.5;" parent="M7CGMbNuYNeq0SnUNNgH-6" vertex="1">
          <mxGeometry x="391" y="165" width="30" height="30" as="geometry" />
        </mxCell>
        <mxCell id="mvioNwK95yMqdUQ73LqQ-28" value="หน้าต่อไป" style="text;html=1;align=center;verticalAlign=middle;resizable=0;points=[];autosize=1;strokeColor=none;fillColor=none;fontFamily=Sarabun;fontSource=https%3A%2F%2Ffonts.googleapis.com%2Fcss%3Ffamily%3DSarabun;" parent="M7CGMbNuYNeq0SnUNNgH-6" vertex="1">
          <mxGeometry x="345" y="220" width="70" height="30" as="geometry" />
        </mxCell>
        <mxCell id="mvioNwK95yMqdUQ73LqQ-29" value="ก" style="text;html=1;align=center;verticalAlign=middle;resizable=0;points=[];autosize=1;strokeColor=none;fillColor=none;fontFamily=Sarabun;fontSource=https%3A%2F%2Ffonts.googleapis.com%2Fcss%3Ffamily%3DSarabun;" parent="M7CGMbNuYNeq0SnUNNgH-6" vertex="1">
          <mxGeometry x="339" y="190" width="30" height="30" as="geometry" />
        </mxCell>
        <mxCell id="mvioNwK95yMqdUQ73LqQ-30" value="ก" style="text;html=1;align=center;verticalAlign=middle;resizable=0;points=[];autosize=1;strokeColor=none;fillColor=none;fontFamily=Sarabun;fontSource=https%3A%2F%2Ffonts.googleapis.com%2Fcss%3Ffamily%3DSarabun;" parent="M7CGMbNuYNeq0SnUNNgH-6" vertex="1">
          <mxGeometry x="391" y="160" width="30" height="30" as="geometry" />
        </mxCell>
        <mxCell id="mvioNwK95yMqdUQ73LqQ-32" value="แสดงผล/รับค่า" style="shape=parallelogram;perimeter=parallelogramPerimeter;whiteSpace=wrap;html=1;fixedSize=1;fontFamily=Sarabun;fontSource=https%3A%2F%2Ffonts.googleapis.com%2Fcss%3Ffamily%3DSarabun;" parent="M7CGMbNuYNeq0SnUNNgH-6" vertex="1">
          <mxGeometry x="450" y="210" width="120" height="30" as="geometry" />
        </mxCell>
        <mxCell id="mvioNwK95yMqdUQ73LqQ-33" value="" style="endArrow=classic;html=1;rounded=0;" parent="M7CGMbNuYNeq0SnUNNgH-6" edge="1">
          <mxGeometry width="50" height="50" relative="1" as="geometry">
            <mxPoint x="509.71" y="180" as="sourcePoint" />
            <mxPoint x="510.21" y="210" as="targetPoint" />
          </mxGeometry>
        </mxCell>
        <mxCell id="mvioNwK95yMqdUQ73LqQ-34" value="" style="endArrow=classic;html=1;rounded=0;" parent="M7CGMbNuYNeq0SnUNNgH-6" edge="1">
          <mxGeometry width="50" height="50" relative="1" as="geometry">
            <mxPoint x="509.71" y="240" as="sourcePoint" />
            <mxPoint x="510.21" y="270" as="targetPoint" />
          </mxGeometry>
        </mxCell>
        <mxCell id="mvioNwK95yMqdUQ73LqQ-36" value="แก้ไขโจทย์ปัญหา" style="swimlane;fontFamily=Sarabun;fontSource=https%3A%2F%2Ffonts.googleapis.com%2Fcss%3Ffamily%3DSarabun;sketch=1;curveFitting=1;jiggle=2;" parent="WIyWlLk6GJQsqaUBKTNV-1" vertex="1">
          <mxGeometry x="-2035" y="600" width="1590" height="1720" as="geometry" />
        </mxCell>
        <mxCell id="DgLKF9WfdBJmf-9WhJDX-174" style="edgeStyle=orthogonalEdgeStyle;rounded=0;orthogonalLoop=1;jettySize=auto;html=1;exitX=0.5;exitY=1;exitDx=0;exitDy=0;entryX=0.5;entryY=0;entryDx=0;entryDy=0;" parent="mvioNwK95yMqdUQ73LqQ-36" source="mvioNwK95yMqdUQ73LqQ-35" target="1EU9zwQX3X6W5CgyfDkg-3" edge="1">
          <mxGeometry relative="1" as="geometry" />
        </mxCell>
        <mxCell id="mvioNwK95yMqdUQ73LqQ-35" value="&lt;font data-font-src=&quot;https://fonts.googleapis.com/css?family=Sarabun&quot; face=&quot;Sarabun&quot;&gt;เริ่มต้น&lt;/font&gt;" style="ellipse;whiteSpace=wrap;html=1;" parent="mvioNwK95yMqdUQ73LqQ-36" vertex="1">
          <mxGeometry x="255" y="30" width="130" height="30" as="geometry" />
        </mxCell>
        <mxCell id="DgLKF9WfdBJmf-9WhJDX-49" style="edgeStyle=orthogonalEdgeStyle;rounded=0;orthogonalLoop=1;jettySize=auto;html=1;exitX=0.5;exitY=1;exitDx=0;exitDy=0;entryX=0.5;entryY=0;entryDx=0;entryDy=0;" parent="mvioNwK95yMqdUQ73LqQ-36" source="1EU9zwQX3X6W5CgyfDkg-3" target="DgLKF9WfdBJmf-9WhJDX-5" edge="1">
          <mxGeometry relative="1" as="geometry" />
        </mxCell>
        <mxCell id="1EU9zwQX3X6W5CgyfDkg-3" value="แสดงรายการสินค้าให้ลูกค้าเลือก" style="rounded=0;whiteSpace=wrap;html=1;fontFamily=Sarabun;fontSource=https%3A%2F%2Ffonts.googleapis.com%2Fcss%3Ffamily%3DSarabun;fontSize=8;" parent="mvioNwK95yMqdUQ73LqQ-36" vertex="1">
          <mxGeometry x="260" y="80" width="120" height="20" as="geometry" />
        </mxCell>
        <mxCell id="1EU9zwQX3X6W5CgyfDkg-144" style="edgeStyle=orthogonalEdgeStyle;rounded=0;orthogonalLoop=1;jettySize=auto;html=1;entryX=0.5;entryY=0;entryDx=0;entryDy=0;exitX=0;exitY=0.5;exitDx=0;exitDy=0;" parent="mvioNwK95yMqdUQ73LqQ-36" source="1EU9zwQX3X6W5CgyfDkg-3" edge="1">
          <mxGeometry relative="1" as="geometry">
            <mxPoint x="110" y="220" as="targetPoint" />
            <mxPoint x="270" y="116" as="sourcePoint" />
          </mxGeometry>
        </mxCell>
        <mxCell id="1EU9zwQX3X6W5CgyfDkg-8" value="ลูกค้าเลือกมากกว่า 1?" style="rhombus;whiteSpace=wrap;html=1;fontFamily=Sarabun;fontSource=https%3A%2F%2Ffonts.googleapis.com%2Fcss%3Ffamily%3DSarabun;align=center;fontSize=10;" parent="mvioNwK95yMqdUQ73LqQ-36" vertex="1">
          <mxGeometry x="270" y="160" width="100" height="60" as="geometry" />
        </mxCell>
        <mxCell id="1EU9zwQX3X6W5CgyfDkg-10" value="" style="endArrow=classic;html=1;rounded=0;entryX=0.5;entryY=0;entryDx=0;entryDy=0;fillColor=#60a917;strokeColor=#2D7600;" parent="mvioNwK95yMqdUQ73LqQ-36" target="1EU9zwQX3X6W5CgyfDkg-15" edge="1">
          <mxGeometry width="50" height="50" relative="1" as="geometry">
            <mxPoint x="319.71000000000004" y="220" as="sourcePoint" />
            <mxPoint x="320" y="275" as="targetPoint" />
            <Array as="points">
              <mxPoint x="320" y="260" />
            </Array>
          </mxGeometry>
        </mxCell>
        <mxCell id="1EU9zwQX3X6W5CgyfDkg-11" value="จริง" style="edgeLabel;html=1;align=center;verticalAlign=middle;resizable=0;points=[];fontFamily=Sarabun;fontSource=https%3A%2F%2Ffonts.googleapis.com%2Fcss%3Ffamily%3DSarabun;" parent="1EU9zwQX3X6W5CgyfDkg-10" vertex="1" connectable="0">
          <mxGeometry x="-0.4142" y="-1" relative="1" as="geometry">
            <mxPoint as="offset" />
          </mxGeometry>
        </mxCell>
        <mxCell id="1EU9zwQX3X6W5CgyfDkg-53" value="จริง" style="edgeLabel;html=1;align=center;verticalAlign=middle;resizable=0;points=[];fontFamily=Sarabun;fontSource=https%3A%2F%2Ffonts.googleapis.com%2Fcss%3Ffamily%3DSarabun;" parent="1EU9zwQX3X6W5CgyfDkg-10" vertex="1" connectable="0">
          <mxGeometry x="-0.4142" y="-1" relative="1" as="geometry">
            <mxPoint x="121" y="52" as="offset" />
          </mxGeometry>
        </mxCell>
        <mxCell id="1EU9zwQX3X6W5CgyfDkg-12" value="" style="endArrow=classic;html=1;rounded=0;fillColor=#d80073;strokeColor=#A50040;" parent="mvioNwK95yMqdUQ73LqQ-36" edge="1">
          <mxGeometry width="50" height="50" relative="1" as="geometry">
            <mxPoint x="370" y="190" as="sourcePoint" />
            <mxPoint x="440" y="220" as="targetPoint" />
            <Array as="points">
              <mxPoint x="440" y="190" />
            </Array>
          </mxGeometry>
        </mxCell>
        <mxCell id="1EU9zwQX3X6W5CgyfDkg-13" value="&lt;font data-font-src=&quot;https://fonts.googleapis.com/css?family=Sarabun&quot; face=&quot;Sarabun&quot;&gt;เท็จ&lt;/font&gt;" style="edgeLabel;html=1;align=center;verticalAlign=middle;resizable=0;points=[];" parent="1EU9zwQX3X6W5CgyfDkg-12" vertex="1" connectable="0">
          <mxGeometry x="-0.0019" y="-2" relative="1" as="geometry">
            <mxPoint as="offset" />
          </mxGeometry>
        </mxCell>
        <mxCell id="1EU9zwQX3X6W5CgyfDkg-15" value="เพิ่มรายการสินค้าและรายการที่เลือก และรวมราคา" style="rounded=0;whiteSpace=wrap;html=1;fontFamily=Sarabun;fontSource=https%3A%2F%2Ffonts.googleapis.com%2Fcss%3Ffamily%3DSarabun;" parent="mvioNwK95yMqdUQ73LqQ-36" vertex="1">
          <mxGeometry x="260" y="280" width="120" height="50" as="geometry" />
        </mxCell>
        <mxCell id="1EU9zwQX3X6W5CgyfDkg-44" style="edgeStyle=orthogonalEdgeStyle;rounded=0;orthogonalLoop=1;jettySize=auto;html=1;fontColor=#00FF00;fillColor=#60a917;strokeColor=#2D7600;entryX=1;entryY=0.5;entryDx=0;entryDy=0;" parent="mvioNwK95yMqdUQ73LqQ-36" target="1EU9zwQX3X6W5CgyfDkg-3" edge="1">
          <mxGeometry relative="1" as="geometry">
            <mxPoint x="320" y="70" as="targetPoint" />
            <mxPoint x="440" y="300" as="sourcePoint" />
            <Array as="points">
              <mxPoint x="440" y="320" />
              <mxPoint x="500" y="320" />
              <mxPoint x="500" y="90" />
            </Array>
          </mxGeometry>
        </mxCell>
        <mxCell id="1EU9zwQX3X6W5CgyfDkg-18" value="ลูกค้าต้องการเลือกสินค้าเพิ่ม?" style="rhombus;whiteSpace=wrap;html=1;fontFamily=Sarabun;fontSource=https%3A%2F%2Ffonts.googleapis.com%2Fcss%3Ffamily%3DSarabun;align=center;fontSize=10;" parent="mvioNwK95yMqdUQ73LqQ-36" vertex="1">
          <mxGeometry x="390" y="220" width="100" height="60" as="geometry" />
        </mxCell>
        <mxCell id="1EU9zwQX3X6W5CgyfDkg-38" value="" style="endArrow=classic;html=1;rounded=0;strokeColor=#FFFFFF;entryX=0.5;entryY=0;entryDx=0;entryDy=0;" parent="mvioNwK95yMqdUQ73LqQ-36" target="yJkIPhQDSD9A7GnSrkzE-14" edge="1">
          <mxGeometry width="50" height="50" relative="1" as="geometry">
            <mxPoint x="319.71000000000004" y="330" as="sourcePoint" />
            <mxPoint x="320.21000000000004" y="360" as="targetPoint" />
          </mxGeometry>
        </mxCell>
        <mxCell id="1EU9zwQX3X6W5CgyfDkg-65" value="ยืนยันเพื่อดำเนินการต่อ? (แน่ใจหรือไม่?)" style="rhombus;whiteSpace=wrap;html=1;fontFamily=Sarabun;fontSource=https%3A%2F%2Ffonts.googleapis.com%2Fcss%3Ffamily%3DSarabun;align=center;fontSize=8;" parent="mvioNwK95yMqdUQ73LqQ-36" vertex="1">
          <mxGeometry x="510" y="280" width="100" height="60" as="geometry" />
        </mxCell>
        <mxCell id="1EU9zwQX3X6W5CgyfDkg-71" value="" style="endArrow=classic;html=1;rounded=0;fillColor=#d80073;strokeColor=#A50040;" parent="mvioNwK95yMqdUQ73LqQ-36" edge="1">
          <mxGeometry width="50" height="50" relative="1" as="geometry">
            <mxPoint x="490" y="250" as="sourcePoint" />
            <mxPoint x="560" y="280" as="targetPoint" />
            <Array as="points">
              <mxPoint x="560" y="250" />
            </Array>
          </mxGeometry>
        </mxCell>
        <mxCell id="1EU9zwQX3X6W5CgyfDkg-72" value="&lt;font data-font-src=&quot;https://fonts.googleapis.com/css?family=Sarabun&quot; face=&quot;Sarabun&quot;&gt;เท็จ&lt;/font&gt;" style="edgeLabel;html=1;align=center;verticalAlign=middle;resizable=0;points=[];" parent="1EU9zwQX3X6W5CgyfDkg-71" vertex="1" connectable="0">
          <mxGeometry x="-0.0019" y="-2" relative="1" as="geometry">
            <mxPoint as="offset" />
          </mxGeometry>
        </mxCell>
        <mxCell id="1EU9zwQX3X6W5CgyfDkg-126" value="สินค้าหมด" style="rhombus;whiteSpace=wrap;fontFamily=Sarabun;fontSource=https%3A%2F%2Ffonts.googleapis.com%2Fcss%3Ffamily%3DSarabun;align=center;fontSize=8;fontColor=default;labelBackgroundColor=none;labelBorderColor=none;html=1;" parent="mvioNwK95yMqdUQ73LqQ-36" vertex="1">
          <mxGeometry x="60" y="220" width="100" height="60" as="geometry" />
        </mxCell>
        <mxCell id="yJkIPhQDSD9A7GnSrkzE-76" value="" style="edgeStyle=orthogonalEdgeStyle;rounded=0;orthogonalLoop=1;jettySize=auto;html=1;fillColor=#60a917;strokeColor=#2D7600;" parent="mvioNwK95yMqdUQ73LqQ-36" source="1EU9zwQX3X6W5CgyfDkg-132" target="yJkIPhQDSD9A7GnSrkzE-75" edge="1">
          <mxGeometry relative="1" as="geometry" />
        </mxCell>
        <mxCell id="1EU9zwQX3X6W5CgyfDkg-132" value="&lt;font face=&quot;Sarabun&quot;&gt;จับเวลา 5 นาที&lt;/font&gt;" style="shape=process;whiteSpace=wrap;html=1;backgroundOutline=1;" parent="mvioNwK95yMqdUQ73LqQ-36" vertex="1">
          <mxGeometry x="140" y="610" width="120" height="30" as="geometry" />
        </mxCell>
        <mxCell id="yJkIPhQDSD9A7GnSrkzE-20" style="edgeStyle=orthogonalEdgeStyle;rounded=0;orthogonalLoop=1;jettySize=auto;html=1;exitX=0.5;exitY=1;exitDx=0;exitDy=0;entryX=0.5;entryY=0;entryDx=0;entryDy=0;fillColor=#d80073;strokeColor=#A50040;" parent="mvioNwK95yMqdUQ73LqQ-36" edge="1">
          <mxGeometry relative="1" as="geometry">
            <mxPoint x="270" y="920" as="sourcePoint" />
            <mxPoint x="270" y="940" as="targetPoint" />
          </mxGeometry>
        </mxCell>
        <mxCell id="1EU9zwQX3X6W5CgyfDkg-138" value="&lt;span style=&quot;font-size: 8px;&quot;&gt;คืนเงินที่ใส่เข้ามา&lt;/span&gt;" style="rounded=0;whiteSpace=wrap;html=1;fontFamily=Sarabun;fontSource=https%3A%2F%2Ffonts.googleapis.com%2Fcss%3Ffamily%3DSarabun;" parent="mvioNwK95yMqdUQ73LqQ-36" vertex="1">
          <mxGeometry x="210" y="870" width="120" height="50" as="geometry" />
        </mxCell>
        <mxCell id="yJkIPhQDSD9A7GnSrkzE-0" value="" style="endArrow=classic;html=1;rounded=0;fillColor=#d80073;strokeColor=#A50040;exitX=1;exitY=0.5;exitDx=0;exitDy=0;" parent="mvioNwK95yMqdUQ73LqQ-36" source="1EU9zwQX3X6W5CgyfDkg-126" edge="1">
          <mxGeometry width="50" height="50" relative="1" as="geometry">
            <mxPoint x="170" y="250" as="sourcePoint" />
            <mxPoint x="320" y="70" as="targetPoint" />
            <Array as="points">
              <mxPoint x="195" y="250" />
              <mxPoint x="195" y="70" />
            </Array>
          </mxGeometry>
        </mxCell>
        <mxCell id="yJkIPhQDSD9A7GnSrkzE-1" value="&lt;font data-font-src=&quot;https://fonts.googleapis.com/css?family=Sarabun&quot; face=&quot;Sarabun&quot;&gt;เท็จ&lt;/font&gt;" style="edgeLabel;html=1;align=center;verticalAlign=middle;resizable=0;points=[];" parent="yJkIPhQDSD9A7GnSrkzE-0" vertex="1" connectable="0">
          <mxGeometry x="-0.0019" y="-2" relative="1" as="geometry">
            <mxPoint as="offset" />
          </mxGeometry>
        </mxCell>
        <mxCell id="yJkIPhQDSD9A7GnSrkzE-13" style="edgeStyle=orthogonalEdgeStyle;rounded=0;orthogonalLoop=1;jettySize=auto;html=1;exitX=0.5;exitY=1;exitDx=0;exitDy=0;entryX=0;entryY=0.5;entryDx=0;entryDy=0;fillColor=#60a917;strokeColor=#2D7600;" parent="mvioNwK95yMqdUQ73LqQ-36" source="yJkIPhQDSD9A7GnSrkzE-2" target="mvioNwK95yMqdUQ73LqQ-35" edge="1">
          <mxGeometry relative="1" as="geometry">
            <mxPoint x="30" y="50" as="targetPoint" />
            <Array as="points">
              <mxPoint x="110" y="410" />
              <mxPoint x="30" y="410" />
              <mxPoint x="30" y="45" />
            </Array>
          </mxGeometry>
        </mxCell>
        <mxCell id="yJkIPhQDSD9A7GnSrkzE-2" value="แสดงข้อความว่า &quot;สินค้าหมด&quot;" style="rounded=0;whiteSpace=wrap;html=1;fontFamily=Sarabun;fontSource=https%3A%2F%2Ffonts.googleapis.com%2Fcss%3Ffamily%3DSarabun;" parent="mvioNwK95yMqdUQ73LqQ-36" vertex="1">
          <mxGeometry x="50" y="340" width="120" height="50" as="geometry" />
        </mxCell>
        <mxCell id="yJkIPhQDSD9A7GnSrkzE-3" value="" style="endArrow=classic;html=1;rounded=0;entryX=0.5;entryY=0;entryDx=0;entryDy=0;fillColor=#60a917;strokeColor=#2D7600;" parent="mvioNwK95yMqdUQ73LqQ-36" edge="1">
          <mxGeometry width="50" height="50" relative="1" as="geometry">
            <mxPoint x="109.71000000000004" y="280" as="sourcePoint" />
            <mxPoint x="110" y="340" as="targetPoint" />
            <Array as="points">
              <mxPoint x="110" y="320" />
            </Array>
          </mxGeometry>
        </mxCell>
        <mxCell id="yJkIPhQDSD9A7GnSrkzE-4" value="จริง" style="edgeLabel;html=1;align=center;verticalAlign=middle;resizable=0;points=[];fontFamily=Sarabun;fontSource=https%3A%2F%2Ffonts.googleapis.com%2Fcss%3Ffamily%3DSarabun;" parent="yJkIPhQDSD9A7GnSrkzE-3" vertex="1" connectable="0">
          <mxGeometry x="-0.4142" y="-1" relative="1" as="geometry">
            <mxPoint as="offset" />
          </mxGeometry>
        </mxCell>
        <mxCell id="yJkIPhQDSD9A7GnSrkzE-6" value="" style="endArrow=classic;html=1;rounded=0;entryX=1;entryY=0.75;entryDx=0;entryDy=0;fillColor=#60a917;strokeColor=#2D7600;" parent="mvioNwK95yMqdUQ73LqQ-36" target="yJkIPhQDSD9A7GnSrkzE-14" edge="1">
          <mxGeometry width="50" height="50" relative="1" as="geometry">
            <mxPoint x="559.71" y="340" as="sourcePoint" />
            <mxPoint x="380" y="390" as="targetPoint" />
            <Array as="points">
              <mxPoint x="560" y="390" />
            </Array>
          </mxGeometry>
        </mxCell>
        <mxCell id="yJkIPhQDSD9A7GnSrkzE-7" value="จริง" style="edgeLabel;html=1;align=center;verticalAlign=middle;resizable=0;points=[];fontFamily=Sarabun;fontSource=https%3A%2F%2Ffonts.googleapis.com%2Fcss%3Ffamily%3DSarabun;" parent="yJkIPhQDSD9A7GnSrkzE-6" vertex="1" connectable="0">
          <mxGeometry x="-0.4142" y="-1" relative="1" as="geometry">
            <mxPoint as="offset" />
          </mxGeometry>
        </mxCell>
        <mxCell id="yJkIPhQDSD9A7GnSrkzE-31" style="edgeStyle=orthogonalEdgeStyle;rounded=0;orthogonalLoop=1;jettySize=auto;html=1;exitX=0.5;exitY=1;exitDx=0;exitDy=0;" parent="mvioNwK95yMqdUQ73LqQ-36" source="yJkIPhQDSD9A7GnSrkzE-14" edge="1">
          <mxGeometry relative="1" as="geometry">
            <mxPoint x="320" y="440" as="targetPoint" />
          </mxGeometry>
        </mxCell>
        <mxCell id="yJkIPhQDSD9A7GnSrkzE-14" value="แสดงรายการสินค้าที่เลือกทั้งหมด + ราคารวม" style="shape=parallelogram;perimeter=parallelogramPerimeter;whiteSpace=wrap;html=1;fixedSize=1;fontFamily=Sarabun;fontSource=https%3A%2F%2Ffonts.googleapis.com%2Fcss%3Ffamily%3DSarabun;fontSize=10;" parent="mvioNwK95yMqdUQ73LqQ-36" vertex="1">
          <mxGeometry x="260" y="370" width="120" height="30" as="geometry" />
        </mxCell>
        <mxCell id="yJkIPhQDSD9A7GnSrkzE-17" style="edgeStyle=orthogonalEdgeStyle;rounded=0;orthogonalLoop=1;jettySize=auto;html=1;exitX=0.5;exitY=1;exitDx=0;exitDy=0;entryX=0.5;entryY=0;entryDx=0;entryDy=0;fillColor=#d80073;strokeColor=#A50040;" parent="mvioNwK95yMqdUQ73LqQ-36" source="yJkIPhQDSD9A7GnSrkzE-16" edge="1">
          <mxGeometry relative="1" as="geometry">
            <mxPoint x="270" y="870" as="targetPoint" />
          </mxGeometry>
        </mxCell>
        <mxCell id="yJkIPhQDSD9A7GnSrkzE-16" value="&lt;span style=&quot;font-size: 8px;&quot;&gt;แจ้งเตือน: เงินไม่พอ&amp;nbsp;&lt;/span&gt;" style="shape=parallelogram;perimeter=parallelogramPerimeter;whiteSpace=wrap;html=1;fixedSize=1;fontFamily=Sarabun;fontSource=https%3A%2F%2Ffonts.googleapis.com%2Fcss%3Ffamily%3DSarabun;fontSize=10;" parent="mvioNwK95yMqdUQ73LqQ-36" vertex="1">
          <mxGeometry x="210" y="825" width="120" height="30" as="geometry" />
        </mxCell>
        <mxCell id="yJkIPhQDSD9A7GnSrkzE-97" style="edgeStyle=orthogonalEdgeStyle;rounded=0;orthogonalLoop=1;jettySize=auto;html=1;exitX=0.5;exitY=1;exitDx=0;exitDy=0;entryX=0;entryY=0.5;entryDx=0;entryDy=0;fillColor=#d80073;strokeColor=#A50040;" parent="mvioNwK95yMqdUQ73LqQ-36" source="yJkIPhQDSD9A7GnSrkzE-19" target="pbdgj4b4dvky6A1W4cZq-8" edge="1">
          <mxGeometry relative="1" as="geometry">
            <mxPoint x="270" y="1010" as="targetPoint" />
            <Array as="points">
              <mxPoint x="270" y="1160" />
              <mxPoint x="240" y="1160" />
              <mxPoint x="240" y="1480" />
              <mxPoint x="420" y="1480" />
            </Array>
          </mxGeometry>
        </mxCell>
        <mxCell id="yJkIPhQDSD9A7GnSrkzE-19" value="&lt;span style=&quot;font-size: 8px;&quot;&gt;ยกเลิกการจับเวลา&lt;/span&gt;" style="rounded=0;whiteSpace=wrap;html=1;fontFamily=Sarabun;fontSource=https%3A%2F%2Ffonts.googleapis.com%2Fcss%3Ffamily%3DSarabun;" parent="mvioNwK95yMqdUQ73LqQ-36" vertex="1">
          <mxGeometry x="210" y="940" width="120" height="50" as="geometry" />
        </mxCell>
        <mxCell id="yJkIPhQDSD9A7GnSrkzE-39" value="ยืนยันเพื่อชำระเงิน&lt;span style=&quot;background-color: transparent; color: light-dark(rgb(0, 0, 0), rgb(255, 255, 255));&quot;&gt;? (แน่ใจหรือไม่?)&lt;/span&gt;" style="rhombus;whiteSpace=wrap;html=1;fontFamily=Sarabun;fontSource=https%3A%2F%2Ffonts.googleapis.com%2Fcss%3Ffamily%3DSarabun;align=center;fontSize=8;" parent="mvioNwK95yMqdUQ73LqQ-36" vertex="1">
          <mxGeometry x="270" y="440" width="100" height="60" as="geometry" />
        </mxCell>
        <mxCell id="yJkIPhQDSD9A7GnSrkzE-44" style="edgeStyle=orthogonalEdgeStyle;rounded=0;orthogonalLoop=1;jettySize=auto;html=1;exitX=0.5;exitY=1;exitDx=0;exitDy=0;entryX=0.5;entryY=0;entryDx=0;entryDy=0;fillColor=#d80073;strokeColor=#A50040;" parent="mvioNwK95yMqdUQ73LqQ-36" source="yJkIPhQDSD9A7GnSrkzE-41" edge="1">
          <mxGeometry relative="1" as="geometry">
            <mxPoint x="575" y="610" as="targetPoint" />
          </mxGeometry>
        </mxCell>
        <mxCell id="yJkIPhQDSD9A7GnSrkzE-41" value="ยกเลิกคำสั่งซื้อทั้งหมด?" style="rhombus;whiteSpace=wrap;html=1;fontFamily=Sarabun;fontSource=https%3A%2F%2Ffonts.googleapis.com%2Fcss%3Ffamily%3DSarabun;align=center;fontSize=8;" parent="mvioNwK95yMqdUQ73LqQ-36" vertex="1">
          <mxGeometry x="420" y="490" width="100" height="60" as="geometry" />
        </mxCell>
        <mxCell id="yJkIPhQDSD9A7GnSrkzE-47" value="" style="endArrow=classic;html=1;rounded=0;fillColor=#d80073;strokeColor=#A50040;exitX=1;exitY=0.5;exitDx=0;exitDy=0;" parent="mvioNwK95yMqdUQ73LqQ-36" source="yJkIPhQDSD9A7GnSrkzE-39" edge="1">
          <mxGeometry width="50" height="50" relative="1" as="geometry">
            <mxPoint x="400" y="460" as="sourcePoint" />
            <mxPoint x="470" y="490" as="targetPoint" />
            <Array as="points">
              <mxPoint x="470" y="470" />
            </Array>
          </mxGeometry>
        </mxCell>
        <mxCell id="yJkIPhQDSD9A7GnSrkzE-48" value="&lt;font data-font-src=&quot;https://fonts.googleapis.com/css?family=Sarabun&quot; face=&quot;Sarabun&quot;&gt;เท็จ&lt;/font&gt;" style="edgeLabel;html=1;align=center;verticalAlign=middle;resizable=0;points=[];" parent="yJkIPhQDSD9A7GnSrkzE-47" vertex="1" connectable="0">
          <mxGeometry x="-0.0019" y="-2" relative="1" as="geometry">
            <mxPoint as="offset" />
          </mxGeometry>
        </mxCell>
        <mxCell id="yJkIPhQDSD9A7GnSrkzE-61" value="" style="endArrow=classic;html=1;rounded=0;fillColor=#60a917;strokeColor=#2D7600;entryX=0.5;entryY=0;entryDx=0;entryDy=0;" parent="mvioNwK95yMqdUQ73LqQ-36" edge="1" target="1EU9zwQX3X6W5CgyfDkg-132">
          <mxGeometry width="50" height="50" relative="1" as="geometry">
            <mxPoint x="319.66" y="500" as="sourcePoint" />
            <mxPoint x="320" y="530" as="targetPoint" />
            <Array as="points">
              <mxPoint x="320" y="510" />
              <mxPoint x="320" y="580" />
              <mxPoint x="200" y="580" />
            </Array>
          </mxGeometry>
        </mxCell>
        <mxCell id="yJkIPhQDSD9A7GnSrkzE-62" value="จริง" style="edgeLabel;html=1;align=center;verticalAlign=middle;resizable=0;points=[];fontFamily=Sarabun;fontSource=https%3A%2F%2Ffonts.googleapis.com%2Fcss%3Ffamily%3DSarabun;" parent="yJkIPhQDSD9A7GnSrkzE-61" vertex="1" connectable="0">
          <mxGeometry x="-0.4142" y="-1" relative="1" as="geometry">
            <mxPoint as="offset" />
          </mxGeometry>
        </mxCell>
        <mxCell id="DgLKF9WfdBJmf-9WhJDX-173" style="edgeStyle=orthogonalEdgeStyle;rounded=0;orthogonalLoop=1;jettySize=auto;html=1;exitX=0.5;exitY=1;exitDx=0;exitDy=0;fillColor=#60a917;strokeColor=#2D7600;" parent="mvioNwK95yMqdUQ73LqQ-36" source="yJkIPhQDSD9A7GnSrkzE-75" target="DgLKF9WfdBJmf-9WhJDX-172" edge="1">
          <mxGeometry relative="1" as="geometry" />
        </mxCell>
        <mxCell id="yJkIPhQDSD9A7GnSrkzE-75" value="&lt;span style=&quot;font-size: 8px;&quot;&gt;ให้ลูกค้าใส่เงินเข้าเครื่อง&lt;/span&gt;" style="rounded=0;whiteSpace=wrap;html=1;fontFamily=Sarabun;fontSource=https%3A%2F%2Ffonts.googleapis.com%2Fcss%3Ffamily%3DSarabun;" parent="mvioNwK95yMqdUQ73LqQ-36" vertex="1">
          <mxGeometry x="140" y="659" width="120" height="31" as="geometry" />
        </mxCell>
        <mxCell id="yJkIPhQDSD9A7GnSrkzE-83" style="edgeStyle=orthogonalEdgeStyle;rounded=0;orthogonalLoop=1;jettySize=auto;html=1;exitX=0.5;exitY=1;exitDx=0;exitDy=0;entryX=0.5;entryY=0;entryDx=0;entryDy=0;fillColor=#60a917;strokeColor=#2D7600;" parent="mvioNwK95yMqdUQ73LqQ-36" target="yJkIPhQDSD9A7GnSrkzE-82" edge="1">
          <mxGeometry relative="1" as="geometry">
            <mxPoint x="200" y="730" as="sourcePoint" />
          </mxGeometry>
        </mxCell>
        <mxCell id="yJkIPhQDSD9A7GnSrkzE-82" value="ตรวจสอบว่าเงินเพียงพอหรือไม่?" style="rhombus;whiteSpace=wrap;fontFamily=Sarabun;fontSource=https%3A%2F%2Ffonts.googleapis.com%2Fcss%3Ffamily%3DSarabun;align=center;fontSize=8;fontColor=default;labelBackgroundColor=none;labelBorderColor=none;html=1;" parent="mvioNwK95yMqdUQ73LqQ-36" vertex="1">
          <mxGeometry x="150" y="750" width="100" height="60" as="geometry" />
        </mxCell>
        <mxCell id="yJkIPhQDSD9A7GnSrkzE-84" value="" style="endArrow=classic;html=1;rounded=0;fillColor=#d80073;strokeColor=#A50040;exitX=1;exitY=0.5;exitDx=0;exitDy=0;entryX=0.5;entryY=0;entryDx=0;entryDy=0;" parent="mvioNwK95yMqdUQ73LqQ-36" target="yJkIPhQDSD9A7GnSrkzE-16" edge="1">
          <mxGeometry width="50" height="50" relative="1" as="geometry">
            <mxPoint x="250" y="780" as="sourcePoint" />
            <mxPoint x="280" y="820" as="targetPoint" />
            <Array as="points">
              <mxPoint x="270" y="780" />
            </Array>
          </mxGeometry>
        </mxCell>
        <mxCell id="yJkIPhQDSD9A7GnSrkzE-85" value="&lt;font data-font-src=&quot;https://fonts.googleapis.com/css?family=Sarabun&quot; face=&quot;Sarabun&quot;&gt;เท็จ&lt;/font&gt;" style="edgeLabel;html=1;align=center;verticalAlign=middle;resizable=0;points=[];" parent="yJkIPhQDSD9A7GnSrkzE-84" vertex="1" connectable="0">
          <mxGeometry x="-0.0019" y="-2" relative="1" as="geometry">
            <mxPoint as="offset" />
          </mxGeometry>
        </mxCell>
        <mxCell id="yJkIPhQDSD9A7GnSrkzE-93" style="edgeStyle=orthogonalEdgeStyle;rounded=0;orthogonalLoop=1;jettySize=auto;html=1;exitX=0.5;exitY=1;exitDx=0;exitDy=0;entryX=0.5;entryY=0;entryDx=0;entryDy=0;fillColor=#60a917;strokeColor=#2D7600;" parent="mvioNwK95yMqdUQ73LqQ-36" source="yJkIPhQDSD9A7GnSrkzE-89" target="yJkIPhQDSD9A7GnSrkzE-92" edge="1">
          <mxGeometry relative="1" as="geometry" />
        </mxCell>
        <mxCell id="yJkIPhQDSD9A7GnSrkzE-89" value="&lt;span style=&quot;font-size: 8px;&quot;&gt;หักยอดรวมจากเงินที่ใส่เข้ามา&lt;/span&gt;" style="rounded=0;whiteSpace=wrap;html=1;fontFamily=Sarabun;fontSource=https%3A%2F%2Ffonts.googleapis.com%2Fcss%3Ffamily%3DSarabun;" parent="mvioNwK95yMqdUQ73LqQ-36" vertex="1">
          <mxGeometry x="60" y="840" width="120" height="50" as="geometry" />
        </mxCell>
        <mxCell id="yJkIPhQDSD9A7GnSrkzE-90" value="" style="endArrow=classic;html=1;rounded=0;fillColor=#60a917;strokeColor=#2D7600;entryX=0.5;entryY=0;entryDx=0;entryDy=0;" parent="mvioNwK95yMqdUQ73LqQ-36" target="yJkIPhQDSD9A7GnSrkzE-89" edge="1">
          <mxGeometry width="50" height="50" relative="1" as="geometry">
            <mxPoint x="199.60000000000002" y="810" as="sourcePoint" />
            <mxPoint x="80" y="851" as="targetPoint" />
            <Array as="points">
              <mxPoint x="199.94" y="820" />
              <mxPoint x="140" y="821" />
              <mxPoint x="120" y="821" />
            </Array>
          </mxGeometry>
        </mxCell>
        <mxCell id="yJkIPhQDSD9A7GnSrkzE-91" value="จริง" style="edgeLabel;html=1;align=center;verticalAlign=middle;resizable=0;points=[];fontFamily=Sarabun;fontSource=https%3A%2F%2Ffonts.googleapis.com%2Fcss%3Ffamily%3DSarabun;" parent="yJkIPhQDSD9A7GnSrkzE-90" vertex="1" connectable="0">
          <mxGeometry x="-0.4142" y="-1" relative="1" as="geometry">
            <mxPoint as="offset" />
          </mxGeometry>
        </mxCell>
        <mxCell id="yJkIPhQDSD9A7GnSrkzE-95" style="edgeStyle=orthogonalEdgeStyle;rounded=0;orthogonalLoop=1;jettySize=auto;html=1;exitX=0.5;exitY=1;exitDx=0;exitDy=0;entryX=0.5;entryY=0;entryDx=0;entryDy=0;fillColor=#60a917;strokeColor=#2D7600;" parent="mvioNwK95yMqdUQ73LqQ-36" source="yJkIPhQDSD9A7GnSrkzE-92" target="yJkIPhQDSD9A7GnSrkzE-94" edge="1">
          <mxGeometry relative="1" as="geometry" />
        </mxCell>
        <mxCell id="yJkIPhQDSD9A7GnSrkzE-92" value="&lt;span style=&quot;font-size: 8px;&quot;&gt;คำนวณเงินทอน (แยกเป็นธนบัตร/เหรียญ)&lt;/span&gt;" style="rounded=0;whiteSpace=wrap;html=1;fontFamily=Sarabun;fontSource=https%3A%2F%2Ffonts.googleapis.com%2Fcss%3Ffamily%3DSarabun;" parent="mvioNwK95yMqdUQ73LqQ-36" vertex="1">
          <mxGeometry x="60" y="910" width="120" height="50" as="geometry" />
        </mxCell>
        <mxCell id="yJkIPhQDSD9A7GnSrkzE-94" value="ตรวจสอบว่าในเครื่องมีเงินทอนเพียงพอหรือไม่?" style="rhombus;whiteSpace=wrap;fontFamily=Sarabun;fontSource=https%3A%2F%2Ffonts.googleapis.com%2Fcss%3Ffamily%3DSarabun;align=center;fontSize=8;fontColor=default;labelBackgroundColor=none;labelBorderColor=none;html=1;" parent="mvioNwK95yMqdUQ73LqQ-36" vertex="1">
          <mxGeometry x="70" y="980" width="100" height="60" as="geometry" />
        </mxCell>
        <mxCell id="yJkIPhQDSD9A7GnSrkzE-98" value="" style="endArrow=classic;html=1;rounded=0;fillColor=#d80073;strokeColor=#A50040;exitX=1;exitY=0.5;exitDx=0;exitDy=0;entryX=0.5;entryY=0;entryDx=0;entryDy=0;" parent="mvioNwK95yMqdUQ73LqQ-36" target="yJkIPhQDSD9A7GnSrkzE-100" edge="1">
          <mxGeometry width="50" height="50" relative="1" as="geometry">
            <mxPoint x="170" y="1010" as="sourcePoint" />
            <mxPoint x="190" y="1055" as="targetPoint" />
            <Array as="points">
              <mxPoint x="190" y="1010" />
            </Array>
          </mxGeometry>
        </mxCell>
        <mxCell id="yJkIPhQDSD9A7GnSrkzE-99" value="&lt;font data-font-src=&quot;https://fonts.googleapis.com/css?family=Sarabun&quot; face=&quot;Sarabun&quot;&gt;เท็จ&lt;/font&gt;" style="edgeLabel;html=1;align=center;verticalAlign=middle;resizable=0;points=[];" parent="yJkIPhQDSD9A7GnSrkzE-98" vertex="1" connectable="0">
          <mxGeometry x="-0.0019" y="-2" relative="1" as="geometry">
            <mxPoint as="offset" />
          </mxGeometry>
        </mxCell>
        <mxCell id="DgLKF9WfdBJmf-9WhJDX-157" style="edgeStyle=orthogonalEdgeStyle;rounded=0;orthogonalLoop=1;jettySize=auto;html=1;exitX=0.5;exitY=1;exitDx=0;exitDy=0;entryX=0.5;entryY=0;entryDx=0;entryDy=0;fillColor=#d80073;strokeColor=#A50040;" parent="mvioNwK95yMqdUQ73LqQ-36" source="yJkIPhQDSD9A7GnSrkzE-100" target="DgLKF9WfdBJmf-9WhJDX-155" edge="1">
          <mxGeometry relative="1" as="geometry" />
        </mxCell>
        <mxCell id="yJkIPhQDSD9A7GnSrkzE-100" value="&lt;font style=&quot;font-size: 6px;&quot;&gt;แจ้งเตือน: ไม่สามารถทอนเงินได้ / คืนเงินเต็มจำนวน&lt;/font&gt;" style="shape=parallelogram;perimeter=parallelogramPerimeter;whiteSpace=wrap;html=1;fixedSize=1;fontFamily=Sarabun;fontSource=https%3A%2F%2Ffonts.googleapis.com%2Fcss%3Ffamily%3DSarabun;fontSize=10;" parent="mvioNwK95yMqdUQ73LqQ-36" vertex="1">
          <mxGeometry x="130" y="1070" width="120" height="30" as="geometry" />
        </mxCell>
        <mxCell id="yJkIPhQDSD9A7GnSrkzE-103" value="" style="endArrow=classic;html=1;rounded=0;fillColor=#60a917;strokeColor=#2D7600;entryX=0.547;entryY=0.012;entryDx=0;entryDy=0;entryPerimeter=0;" parent="mvioNwK95yMqdUQ73LqQ-36" target="yJkIPhQDSD9A7GnSrkzE-105" edge="1">
          <mxGeometry width="50" height="50" relative="1" as="geometry">
            <mxPoint x="119.60000000000002" y="1040" as="sourcePoint" />
            <mxPoint x="60" y="1070" as="targetPoint" />
            <Array as="points">
              <mxPoint x="119.94" y="1050" />
              <mxPoint x="71" y="1051" />
            </Array>
          </mxGeometry>
        </mxCell>
        <mxCell id="yJkIPhQDSD9A7GnSrkzE-104" value="จริง" style="edgeLabel;html=1;align=center;verticalAlign=middle;resizable=0;points=[];fontFamily=Sarabun;fontSource=https%3A%2F%2Ffonts.googleapis.com%2Fcss%3Ffamily%3DSarabun;" parent="yJkIPhQDSD9A7GnSrkzE-103" vertex="1" connectable="0">
          <mxGeometry x="-0.4142" y="-1" relative="1" as="geometry">
            <mxPoint as="offset" />
          </mxGeometry>
        </mxCell>
        <mxCell id="yJkIPhQDSD9A7GnSrkzE-107" style="edgeStyle=orthogonalEdgeStyle;rounded=0;orthogonalLoop=1;jettySize=auto;html=1;exitX=0.5;exitY=1;exitDx=0;exitDy=0;entryX=0.5;entryY=0;entryDx=0;entryDy=0;fillColor=#60a917;strokeColor=#2D7600;" parent="mvioNwK95yMqdUQ73LqQ-36" source="yJkIPhQDSD9A7GnSrkzE-105" target="yJkIPhQDSD9A7GnSrkzE-106" edge="1">
          <mxGeometry relative="1" as="geometry" />
        </mxCell>
        <mxCell id="yJkIPhQDSD9A7GnSrkzE-105" value="&lt;span style=&quot;font-size: 8px;&quot;&gt;คำนวณเงินทอน (แยกเป็นธนบัตร/เหรียญ)&lt;/span&gt;" style="rounded=0;whiteSpace=wrap;html=1;fontFamily=Sarabun;fontSource=https%3A%2F%2Ffonts.googleapis.com%2Fcss%3Ffamily%3DSarabun;" parent="mvioNwK95yMqdUQ73LqQ-36" vertex="1">
          <mxGeometry x="5" y="1070" width="120" height="50" as="geometry" />
        </mxCell>
        <mxCell id="yJkIPhQDSD9A7GnSrkzE-106" value="&lt;span&gt;จ่ายสินค้า&lt;/span&gt;" style="rounded=0;whiteSpace=wrap;html=1;fontFamily=Sarabun;fontSource=https%3A%2F%2Ffonts.googleapis.com%2Fcss%3Ffamily%3DSarabun;fontSize=13;" parent="mvioNwK95yMqdUQ73LqQ-36" vertex="1">
          <mxGeometry x="5" y="1150" width="120" height="50" as="geometry" />
        </mxCell>
        <mxCell id="pbdgj4b4dvky6A1W4cZq-12" style="edgeStyle=orthogonalEdgeStyle;rounded=0;orthogonalLoop=1;jettySize=auto;html=1;exitX=0.5;exitY=1;exitDx=0;exitDy=0;entryX=0.5;entryY=0;entryDx=0;entryDy=0;fillColor=#60a917;strokeColor=#2D7600;" parent="mvioNwK95yMqdUQ73LqQ-36" source="yJkIPhQDSD9A7GnSrkzE-114" target="pbdgj4b4dvky6A1W4cZq-8" edge="1">
          <mxGeometry relative="1" as="geometry" />
        </mxCell>
        <mxCell id="yJkIPhQDSD9A7GnSrkzE-114" value="&lt;font&gt;แสดงสรุปรายการทั้งหมด: รายการสินค้า + ยอดรวม + เงินที่หยอด + เงินทอน (แยกเป็นเหรียญ/ธนบัตร) + คงเหลือในเครื่อง&lt;/font&gt;" style="shape=parallelogram;perimeter=parallelogramPerimeter;whiteSpace=wrap;html=1;fixedSize=1;fontFamily=Sarabun;fontSource=https%3A%2F%2Ffonts.googleapis.com%2Fcss%3Ffamily%3DSarabun;fontSize=7;" parent="mvioNwK95yMqdUQ73LqQ-36" vertex="1">
          <mxGeometry x="247" y="1330" width="120" height="30" as="geometry" />
        </mxCell>
        <mxCell id="pbdgj4b4dvky6A1W4cZq-8" value="&lt;font face=&quot;Sarabun&quot;&gt;สิ้นสุด&lt;/font&gt;" style="ellipse;whiteSpace=wrap;html=1;" parent="mvioNwK95yMqdUQ73LqQ-36" vertex="1">
          <mxGeometry x="420" y="1570" width="70" height="30" as="geometry" />
        </mxCell>
        <mxCell id="1EU9zwQX3X6W5CgyfDkg-73" value="" style="endArrow=classic;html=1;rounded=0;fillColor=#d80073;strokeColor=#A50040;" parent="mvioNwK95yMqdUQ73LqQ-36" edge="1">
          <mxGeometry width="50" height="50" relative="1" as="geometry">
            <mxPoint x="610" y="310" as="sourcePoint" />
            <mxPoint x="320" y="70" as="targetPoint" />
            <Array as="points">
              <mxPoint x="610" y="200" />
              <mxPoint x="610" y="140" />
              <mxPoint x="610" y="110" />
              <mxPoint x="610" y="70" />
            </Array>
          </mxGeometry>
        </mxCell>
        <mxCell id="1EU9zwQX3X6W5CgyfDkg-74" value="&lt;font data-font-src=&quot;https://fonts.googleapis.com/css?family=Sarabun&quot; face=&quot;Sarabun&quot;&gt;เท็จ&lt;/font&gt;" style="edgeLabel;html=1;align=center;verticalAlign=middle;resizable=0;points=[];rotation=0;" parent="1EU9zwQX3X6W5CgyfDkg-73" vertex="1" connectable="0">
          <mxGeometry x="-0.0019" y="-2" relative="1" as="geometry">
            <mxPoint x="-2" y="149" as="offset" />
          </mxGeometry>
        </mxCell>
        <mxCell id="DgLKF9WfdBJmf-9WhJDX-9" style="edgeStyle=orthogonalEdgeStyle;rounded=0;orthogonalLoop=1;jettySize=auto;html=1;" parent="mvioNwK95yMqdUQ73LqQ-36" source="DgLKF9WfdBJmf-9WhJDX-5" target="DgLKF9WfdBJmf-9WhJDX-8" edge="1">
          <mxGeometry relative="1" as="geometry" />
        </mxCell>
        <mxCell id="DgLKF9WfdBJmf-9WhJDX-50" style="edgeStyle=orthogonalEdgeStyle;rounded=0;orthogonalLoop=1;jettySize=auto;html=1;exitX=0.5;exitY=1;exitDx=0;exitDy=0;entryX=0.5;entryY=0;entryDx=0;entryDy=0;" parent="mvioNwK95yMqdUQ73LqQ-36" source="DgLKF9WfdBJmf-9WhJDX-5" target="1EU9zwQX3X6W5CgyfDkg-8" edge="1">
          <mxGeometry relative="1" as="geometry" />
        </mxCell>
        <mxCell id="DgLKF9WfdBJmf-9WhJDX-5" value="แสดงประเภทสินค้า" style="rounded=0;whiteSpace=wrap;html=1;fontFamily=Sarabun;fontSource=https%3A%2F%2Ffonts.googleapis.com%2Fcss%3Ffamily%3DSarabun;fontSize=10;" parent="mvioNwK95yMqdUQ73LqQ-36" vertex="1">
          <mxGeometry x="260" y="120" width="120" height="20" as="geometry" />
        </mxCell>
        <mxCell id="DgLKF9WfdBJmf-9WhJDX-8" value="&lt;u style=&quot;font-size: 14px; text-align: left; text-wrap-mode: nowrap;&quot;&gt;น้ำหรือขนม?&lt;/u&gt;" style="rhombus;whiteSpace=wrap;html=1;fontFamily=Sarabun;fontSource=https%3A%2F%2Ffonts.googleapis.com%2Fcss%3Ffamily%3DSarabun;align=center;fontSize=10;" parent="mvioNwK95yMqdUQ73LqQ-36" vertex="1">
          <mxGeometry x="630" y="160" width="100" height="60" as="geometry" />
        </mxCell>
        <mxCell id="DgLKF9WfdBJmf-9WhJDX-13" value="" style="endArrow=classic;html=1;rounded=0;fillColor=#60a917;strokeColor=#2D7600;" parent="mvioNwK95yMqdUQ73LqQ-36" edge="1">
          <mxGeometry width="50" height="50" relative="1" as="geometry">
            <mxPoint x="679.77" y="220" as="sourcePoint" />
            <mxPoint x="680.11" y="250" as="targetPoint" />
            <Array as="points">
              <mxPoint x="680.11" y="230" />
            </Array>
          </mxGeometry>
        </mxCell>
        <mxCell id="DgLKF9WfdBJmf-9WhJDX-14" value="จริง" style="edgeLabel;html=1;align=center;verticalAlign=middle;resizable=0;points=[];fontFamily=Sarabun;fontSource=https%3A%2F%2Ffonts.googleapis.com%2Fcss%3Ffamily%3DSarabun;" parent="DgLKF9WfdBJmf-9WhJDX-13" vertex="1" connectable="0">
          <mxGeometry x="-0.4142" y="-1" relative="1" as="geometry">
            <mxPoint as="offset" />
          </mxGeometry>
        </mxCell>
        <mxCell id="DgLKF9WfdBJmf-9WhJDX-18" value="" style="endArrow=classic;html=1;rounded=0;fillColor=#d80073;strokeColor=#A50040;entryX=0.5;entryY=0;entryDx=0;entryDy=0;" parent="mvioNwK95yMqdUQ73LqQ-36" target="DgLKF9WfdBJmf-9WhJDX-22" edge="1">
          <mxGeometry width="50" height="50" relative="1" as="geometry">
            <mxPoint x="730" y="190" as="sourcePoint" />
            <mxPoint x="740" y="220" as="targetPoint" />
            <Array as="points">
              <mxPoint x="1360" y="190" />
              <mxPoint x="1360" y="800" />
              <mxPoint x="980" y="800" />
            </Array>
          </mxGeometry>
        </mxCell>
        <mxCell id="DgLKF9WfdBJmf-9WhJDX-19" value="&lt;font data-font-src=&quot;https://fonts.googleapis.com/css?family=Sarabun&quot; face=&quot;Sarabun&quot;&gt;เท็จ&lt;/font&gt;" style="edgeLabel;html=1;align=center;verticalAlign=middle;resizable=0;points=[];" parent="DgLKF9WfdBJmf-9WhJDX-18" vertex="1" connectable="0">
          <mxGeometry x="-0.0019" y="-2" relative="1" as="geometry">
            <mxPoint x="-608" y="-189" as="offset" />
          </mxGeometry>
        </mxCell>
        <mxCell id="DgLKF9WfdBJmf-9WhJDX-26" style="edgeStyle=orthogonalEdgeStyle;rounded=0;orthogonalLoop=1;jettySize=auto;html=1;exitX=0.5;exitY=1;exitDx=0;exitDy=0;entryX=0.5;entryY=0;entryDx=0;entryDy=0;" parent="mvioNwK95yMqdUQ73LqQ-36" source="DgLKF9WfdBJmf-9WhJDX-21" target="DgLKF9WfdBJmf-9WhJDX-23" edge="1">
          <mxGeometry relative="1" as="geometry" />
        </mxCell>
        <mxCell id="DgLKF9WfdBJmf-9WhJDX-21" value="เมนูน้ำ" style="rounded=0;whiteSpace=wrap;html=1;fontFamily=Sarabun;fontSource=https%3A%2F%2Ffonts.googleapis.com%2Fcss%3Ffamily%3DSarabun;fontSize=8;" parent="mvioNwK95yMqdUQ73LqQ-36" vertex="1">
          <mxGeometry x="620" y="250" width="120" height="20" as="geometry" />
        </mxCell>
        <mxCell id="DgLKF9WfdBJmf-9WhJDX-107" style="edgeStyle=orthogonalEdgeStyle;rounded=0;orthogonalLoop=1;jettySize=auto;html=1;exitX=0.5;exitY=1;exitDx=0;exitDy=0;entryX=0.5;entryY=0;entryDx=0;entryDy=0;" parent="mvioNwK95yMqdUQ73LqQ-36" source="DgLKF9WfdBJmf-9WhJDX-22" target="DgLKF9WfdBJmf-9WhJDX-106" edge="1">
          <mxGeometry relative="1" as="geometry" />
        </mxCell>
        <mxCell id="DgLKF9WfdBJmf-9WhJDX-22" value="เมนูขนม" style="rounded=0;whiteSpace=wrap;html=1;fontFamily=Sarabun;fontSource=https%3A%2F%2Ffonts.googleapis.com%2Fcss%3Ffamily%3DSarabun;fontSize=8;" parent="mvioNwK95yMqdUQ73LqQ-36" vertex="1">
          <mxGeometry x="920" y="820" width="120" height="20" as="geometry" />
        </mxCell>
        <mxCell id="DgLKF9WfdBJmf-9WhJDX-23" value="&lt;span style=&quot;font-size: 14px; text-align: left; text-wrap-mode: nowrap;&quot;&gt;โค้ก&amp;nbsp;&lt;/span&gt;" style="rhombus;whiteSpace=wrap;html=1;fontFamily=Sarabun;fontSource=https%3A%2F%2Ffonts.googleapis.com%2Fcss%3Ffamily%3DSarabun;align=center;fontSize=8;" parent="mvioNwK95yMqdUQ73LqQ-36" vertex="1">
          <mxGeometry x="630" y="300" width="100" height="60" as="geometry" />
        </mxCell>
        <mxCell id="DgLKF9WfdBJmf-9WhJDX-25" value="&lt;span style=&quot;font-size: 14px; text-align: left; text-wrap-mode: nowrap;&quot;&gt;น้ำเขียว&lt;/span&gt;" style="rhombus;whiteSpace=wrap;html=1;fontFamily=Sarabun;fontSource=https%3A%2F%2Ffonts.googleapis.com%2Fcss%3Ffamily%3DSarabun;align=center;fontSize=8;" parent="mvioNwK95yMqdUQ73LqQ-36" vertex="1">
          <mxGeometry x="750" y="360" width="100" height="60" as="geometry" />
        </mxCell>
        <mxCell id="DgLKF9WfdBJmf-9WhJDX-28" value="" style="endArrow=classic;html=1;rounded=0;fillColor=#d80073;strokeColor=#A50040;" parent="mvioNwK95yMqdUQ73LqQ-36" edge="1">
          <mxGeometry width="50" height="50" relative="1" as="geometry">
            <mxPoint x="730" y="330" as="sourcePoint" />
            <mxPoint x="800" y="360" as="targetPoint" />
            <Array as="points">
              <mxPoint x="800" y="330" />
            </Array>
          </mxGeometry>
        </mxCell>
        <mxCell id="DgLKF9WfdBJmf-9WhJDX-29" value="&lt;font data-font-src=&quot;https://fonts.googleapis.com/css?family=Sarabun&quot; face=&quot;Sarabun&quot;&gt;เท็จ&lt;/font&gt;" style="edgeLabel;html=1;align=center;verticalAlign=middle;resizable=0;points=[];" parent="DgLKF9WfdBJmf-9WhJDX-28" vertex="1" connectable="0">
          <mxGeometry x="-0.0019" y="-2" relative="1" as="geometry">
            <mxPoint as="offset" />
          </mxGeometry>
        </mxCell>
        <mxCell id="DgLKF9WfdBJmf-9WhJDX-30" value="" style="endArrow=classic;html=1;rounded=0;fillColor=#d80073;strokeColor=#A50040;" parent="mvioNwK95yMqdUQ73LqQ-36" edge="1">
          <mxGeometry width="50" height="50" relative="1" as="geometry">
            <mxPoint x="850" y="390" as="sourcePoint" />
            <mxPoint x="920" y="420" as="targetPoint" />
            <Array as="points">
              <mxPoint x="920" y="390" />
            </Array>
          </mxGeometry>
        </mxCell>
        <mxCell id="DgLKF9WfdBJmf-9WhJDX-31" value="&lt;font data-font-src=&quot;https://fonts.googleapis.com/css?family=Sarabun&quot; face=&quot;Sarabun&quot;&gt;เท็จ&lt;/font&gt;" style="edgeLabel;html=1;align=center;verticalAlign=middle;resizable=0;points=[];" parent="DgLKF9WfdBJmf-9WhJDX-30" vertex="1" connectable="0">
          <mxGeometry x="-0.0019" y="-2" relative="1" as="geometry">
            <mxPoint as="offset" />
          </mxGeometry>
        </mxCell>
        <mxCell id="DgLKF9WfdBJmf-9WhJDX-33" value="&lt;span style=&quot;font-size: 14px; text-align: left; text-wrap-mode: nowrap;&quot;&gt;อเมริกาโน่&lt;/span&gt;" style="rhombus;whiteSpace=wrap;html=1;fontFamily=Sarabun;fontSource=https%3A%2F%2Ffonts.googleapis.com%2Fcss%3Ffamily%3DSarabun;align=center;fontSize=8;" parent="mvioNwK95yMqdUQ73LqQ-36" vertex="1">
          <mxGeometry x="870" y="419" width="100" height="60" as="geometry" />
        </mxCell>
        <mxCell id="DgLKF9WfdBJmf-9WhJDX-34" value="" style="endArrow=classic;html=1;rounded=0;fillColor=#d80073;strokeColor=#A50040;" parent="mvioNwK95yMqdUQ73LqQ-36" edge="1">
          <mxGeometry width="50" height="50" relative="1" as="geometry">
            <mxPoint x="850" y="389" as="sourcePoint" />
            <mxPoint x="920" y="419" as="targetPoint" />
            <Array as="points">
              <mxPoint x="920" y="389" />
            </Array>
          </mxGeometry>
        </mxCell>
        <mxCell id="DgLKF9WfdBJmf-9WhJDX-35" value="&lt;font data-font-src=&quot;https://fonts.googleapis.com/css?family=Sarabun&quot; face=&quot;Sarabun&quot;&gt;เท็จ&lt;/font&gt;" style="edgeLabel;html=1;align=center;verticalAlign=middle;resizable=0;points=[];" parent="DgLKF9WfdBJmf-9WhJDX-34" vertex="1" connectable="0">
          <mxGeometry x="-0.0019" y="-2" relative="1" as="geometry">
            <mxPoint as="offset" />
          </mxGeometry>
        </mxCell>
        <mxCell id="DgLKF9WfdBJmf-9WhJDX-36" value="&lt;span style=&quot;font-size: 14px; text-align: left; text-wrap-mode: nowrap;&quot;&gt;ลาเต้&lt;/span&gt;" style="rhombus;whiteSpace=wrap;html=1;fontFamily=Sarabun;fontSource=https%3A%2F%2Ffonts.googleapis.com%2Fcss%3Ffamily%3DSarabun;align=center;fontSize=8;" parent="mvioNwK95yMqdUQ73LqQ-36" vertex="1">
          <mxGeometry x="990" y="479" width="100" height="60" as="geometry" />
        </mxCell>
        <mxCell id="DgLKF9WfdBJmf-9WhJDX-37" value="" style="endArrow=classic;html=1;rounded=0;fillColor=#d80073;strokeColor=#A50040;" parent="mvioNwK95yMqdUQ73LqQ-36" edge="1">
          <mxGeometry width="50" height="50" relative="1" as="geometry">
            <mxPoint x="970" y="449" as="sourcePoint" />
            <mxPoint x="1040" y="479" as="targetPoint" />
            <Array as="points">
              <mxPoint x="1040" y="449" />
            </Array>
          </mxGeometry>
        </mxCell>
        <mxCell id="DgLKF9WfdBJmf-9WhJDX-38" value="&lt;font data-font-src=&quot;https://fonts.googleapis.com/css?family=Sarabun&quot; face=&quot;Sarabun&quot;&gt;เท็จ&lt;/font&gt;" style="edgeLabel;html=1;align=center;verticalAlign=middle;resizable=0;points=[];" parent="DgLKF9WfdBJmf-9WhJDX-37" vertex="1" connectable="0">
          <mxGeometry x="-0.0019" y="-2" relative="1" as="geometry">
            <mxPoint as="offset" />
          </mxGeometry>
        </mxCell>
        <mxCell id="DgLKF9WfdBJmf-9WhJDX-40" value="" style="endArrow=classic;html=1;rounded=0;fillColor=#60a917;strokeColor=#2D7600;" parent="mvioNwK95yMqdUQ73LqQ-36" edge="1">
          <mxGeometry width="50" height="50" relative="1" as="geometry">
            <mxPoint x="680" y="360" as="sourcePoint" />
            <mxPoint x="680" y="390" as="targetPoint" />
            <Array as="points" />
          </mxGeometry>
        </mxCell>
        <mxCell id="DgLKF9WfdBJmf-9WhJDX-41" value="จริง" style="edgeLabel;html=1;align=center;verticalAlign=middle;resizable=0;points=[];fontFamily=Sarabun;fontSource=https%3A%2F%2Ffonts.googleapis.com%2Fcss%3Ffamily%3DSarabun;" parent="DgLKF9WfdBJmf-9WhJDX-40" vertex="1" connectable="0">
          <mxGeometry x="-0.4142" y="-1" relative="1" as="geometry">
            <mxPoint as="offset" />
          </mxGeometry>
        </mxCell>
        <mxCell id="DgLKF9WfdBJmf-9WhJDX-64" style="edgeStyle=orthogonalEdgeStyle;rounded=0;orthogonalLoop=1;jettySize=auto;html=1;exitX=0.5;exitY=1;exitDx=0;exitDy=0;entryX=0.5;entryY=0;entryDx=0;entryDy=0;" parent="mvioNwK95yMqdUQ73LqQ-36" source="DgLKF9WfdBJmf-9WhJDX-48" target="DgLKF9WfdBJmf-9WhJDX-63" edge="1">
          <mxGeometry relative="1" as="geometry" />
        </mxCell>
        <mxCell id="DgLKF9WfdBJmf-9WhJDX-48" value="&lt;span style=&quot;font-size: 12px;&quot;&gt;แสดงราคา&lt;/span&gt;" style="rounded=0;whiteSpace=wrap;html=1;fontFamily=Sarabun;fontSource=https%3A%2F%2Ffonts.googleapis.com%2Fcss%3Ffamily%3DSarabun;fontSize=8;" parent="mvioNwK95yMqdUQ73LqQ-36" vertex="1">
          <mxGeometry x="630" y="390" width="100" height="20" as="geometry" />
        </mxCell>
        <mxCell id="DgLKF9WfdBJmf-9WhJDX-51" value="" style="endArrow=classic;html=1;rounded=0;fillColor=#60a917;strokeColor=#2D7600;" parent="mvioNwK95yMqdUQ73LqQ-36" edge="1">
          <mxGeometry width="50" height="50" relative="1" as="geometry">
            <mxPoint x="799.73" y="420" as="sourcePoint" />
            <mxPoint x="799.73" y="450" as="targetPoint" />
            <Array as="points" />
          </mxGeometry>
        </mxCell>
        <mxCell id="DgLKF9WfdBJmf-9WhJDX-52" value="จริง" style="edgeLabel;html=1;align=center;verticalAlign=middle;resizable=0;points=[];fontFamily=Sarabun;fontSource=https%3A%2F%2Ffonts.googleapis.com%2Fcss%3Ffamily%3DSarabun;" parent="DgLKF9WfdBJmf-9WhJDX-51" vertex="1" connectable="0">
          <mxGeometry x="-0.4142" y="-1" relative="1" as="geometry">
            <mxPoint as="offset" />
          </mxGeometry>
        </mxCell>
        <mxCell id="DgLKF9WfdBJmf-9WhJDX-53" value="&lt;span style=&quot;font-size: 12px;&quot;&gt;แสดงราคา&lt;/span&gt;" style="rounded=0;whiteSpace=wrap;html=1;fontFamily=Sarabun;fontSource=https%3A%2F%2Ffonts.googleapis.com%2Fcss%3Ffamily%3DSarabun;fontSize=8;" parent="mvioNwK95yMqdUQ73LqQ-36" vertex="1">
          <mxGeometry x="750" y="450" width="100" height="20" as="geometry" />
        </mxCell>
        <mxCell id="DgLKF9WfdBJmf-9WhJDX-57" value="&lt;span style=&quot;font-size: 12px;&quot;&gt;แสดงราคา&lt;/span&gt;" style="rounded=0;whiteSpace=wrap;html=1;fontFamily=Sarabun;fontSource=https%3A%2F%2Ffonts.googleapis.com%2Fcss%3Ffamily%3DSarabun;fontSize=8;" parent="mvioNwK95yMqdUQ73LqQ-36" vertex="1">
          <mxGeometry x="870" y="509" width="100" height="20" as="geometry" />
        </mxCell>
        <mxCell id="DgLKF9WfdBJmf-9WhJDX-58" value="" style="endArrow=classic;html=1;rounded=0;fillColor=#60a917;strokeColor=#2D7600;" parent="mvioNwK95yMqdUQ73LqQ-36" edge="1">
          <mxGeometry width="50" height="50" relative="1" as="geometry">
            <mxPoint x="919.73" y="479" as="sourcePoint" />
            <mxPoint x="919.73" y="509" as="targetPoint" />
            <Array as="points" />
          </mxGeometry>
        </mxCell>
        <mxCell id="DgLKF9WfdBJmf-9WhJDX-59" value="จริง" style="edgeLabel;html=1;align=center;verticalAlign=middle;resizable=0;points=[];fontFamily=Sarabun;fontSource=https%3A%2F%2Ffonts.googleapis.com%2Fcss%3Ffamily%3DSarabun;" parent="DgLKF9WfdBJmf-9WhJDX-58" vertex="1" connectable="0">
          <mxGeometry x="-0.4142" y="-1" relative="1" as="geometry">
            <mxPoint as="offset" />
          </mxGeometry>
        </mxCell>
        <mxCell id="DgLKF9WfdBJmf-9WhJDX-60" value="&lt;span style=&quot;font-size: 12px;&quot;&gt;แสดงราคา&lt;/span&gt;" style="rounded=0;whiteSpace=wrap;html=1;fontFamily=Sarabun;fontSource=https%3A%2F%2Ffonts.googleapis.com%2Fcss%3Ffamily%3DSarabun;fontSize=8;" parent="mvioNwK95yMqdUQ73LqQ-36" vertex="1">
          <mxGeometry x="990" y="569" width="100" height="20" as="geometry" />
        </mxCell>
        <mxCell id="DgLKF9WfdBJmf-9WhJDX-61" value="" style="endArrow=classic;html=1;rounded=0;fillColor=#60a917;strokeColor=#2D7600;" parent="mvioNwK95yMqdUQ73LqQ-36" edge="1">
          <mxGeometry width="50" height="50" relative="1" as="geometry">
            <mxPoint x="1039.73" y="539" as="sourcePoint" />
            <mxPoint x="1039.73" y="569" as="targetPoint" />
            <Array as="points" />
          </mxGeometry>
        </mxCell>
        <mxCell id="DgLKF9WfdBJmf-9WhJDX-62" value="จริง" style="edgeLabel;html=1;align=center;verticalAlign=middle;resizable=0;points=[];fontFamily=Sarabun;fontSource=https%3A%2F%2Ffonts.googleapis.com%2Fcss%3Ffamily%3DSarabun;" parent="DgLKF9WfdBJmf-9WhJDX-61" vertex="1" connectable="0">
          <mxGeometry x="-0.4142" y="-1" relative="1" as="geometry">
            <mxPoint as="offset" />
          </mxGeometry>
        </mxCell>
        <mxCell id="DgLKF9WfdBJmf-9WhJDX-63" value="&lt;span style=&quot;font-size: 12px;&quot;&gt;เลือกจำนวน&lt;/span&gt;" style="rounded=0;whiteSpace=wrap;html=1;fontFamily=Sarabun;fontSource=https%3A%2F%2Ffonts.googleapis.com%2Fcss%3Ffamily%3DSarabun;fontSize=8;" parent="mvioNwK95yMqdUQ73LqQ-36" vertex="1">
          <mxGeometry x="630" y="430" width="100" height="20" as="geometry" />
        </mxCell>
        <mxCell id="DgLKF9WfdBJmf-9WhJDX-65" style="edgeStyle=orthogonalEdgeStyle;rounded=0;orthogonalLoop=1;jettySize=auto;html=1;exitX=0.5;exitY=1;exitDx=0;exitDy=0;entryX=0.5;entryY=0;entryDx=0;entryDy=0;" parent="mvioNwK95yMqdUQ73LqQ-36" target="DgLKF9WfdBJmf-9WhJDX-66" edge="1">
          <mxGeometry relative="1" as="geometry">
            <mxPoint x="800" y="470" as="sourcePoint" />
          </mxGeometry>
        </mxCell>
        <mxCell id="DgLKF9WfdBJmf-9WhJDX-66" value="&lt;span style=&quot;font-size: 12px;&quot;&gt;เลือกจำนวน&lt;/span&gt;" style="rounded=0;whiteSpace=wrap;html=1;fontFamily=Sarabun;fontSource=https%3A%2F%2Ffonts.googleapis.com%2Fcss%3Ffamily%3DSarabun;fontSize=8;" parent="mvioNwK95yMqdUQ73LqQ-36" vertex="1">
          <mxGeometry x="750" y="490" width="100" height="20" as="geometry" />
        </mxCell>
        <mxCell id="DgLKF9WfdBJmf-9WhJDX-69" style="edgeStyle=orthogonalEdgeStyle;rounded=0;orthogonalLoop=1;jettySize=auto;html=1;exitX=0.5;exitY=1;exitDx=0;exitDy=0;entryX=0.5;entryY=0;entryDx=0;entryDy=0;" parent="mvioNwK95yMqdUQ73LqQ-36" target="DgLKF9WfdBJmf-9WhJDX-70" edge="1">
          <mxGeometry relative="1" as="geometry">
            <mxPoint x="920" y="528" as="sourcePoint" />
          </mxGeometry>
        </mxCell>
        <mxCell id="DgLKF9WfdBJmf-9WhJDX-70" value="&lt;span style=&quot;font-size: 12px;&quot;&gt;เลือกจำนวน&lt;/span&gt;" style="rounded=0;whiteSpace=wrap;html=1;fontFamily=Sarabun;fontSource=https%3A%2F%2Ffonts.googleapis.com%2Fcss%3Ffamily%3DSarabun;fontSize=8;" parent="mvioNwK95yMqdUQ73LqQ-36" vertex="1">
          <mxGeometry x="870" y="548" width="100" height="20" as="geometry" />
        </mxCell>
        <mxCell id="DgLKF9WfdBJmf-9WhJDX-71" style="edgeStyle=orthogonalEdgeStyle;rounded=0;orthogonalLoop=1;jettySize=auto;html=1;exitX=0.5;exitY=1;exitDx=0;exitDy=0;entryX=0.5;entryY=0;entryDx=0;entryDy=0;" parent="mvioNwK95yMqdUQ73LqQ-36" target="DgLKF9WfdBJmf-9WhJDX-72" edge="1">
          <mxGeometry relative="1" as="geometry">
            <mxPoint x="1040" y="589" as="sourcePoint" />
          </mxGeometry>
        </mxCell>
        <mxCell id="DgLKF9WfdBJmf-9WhJDX-72" value="&lt;span style=&quot;font-size: 12px;&quot;&gt;เลือกจำนวน&lt;/span&gt;" style="rounded=0;whiteSpace=wrap;html=1;fontFamily=Sarabun;fontSource=https%3A%2F%2Ffonts.googleapis.com%2Fcss%3Ffamily%3DSarabun;fontSize=8;" parent="mvioNwK95yMqdUQ73LqQ-36" vertex="1">
          <mxGeometry x="990" y="609" width="100" height="20" as="geometry" />
        </mxCell>
        <mxCell id="DgLKF9WfdBJmf-9WhJDX-73" value="" style="endArrow=classic;html=1;rounded=0;fillColor=#d80073;strokeColor=#A50040;" parent="mvioNwK95yMqdUQ73LqQ-36" edge="1">
          <mxGeometry width="50" height="50" relative="1" as="geometry">
            <mxPoint x="1089" y="508" as="sourcePoint" />
            <mxPoint x="1159" y="538" as="targetPoint" />
            <Array as="points">
              <mxPoint x="1159" y="508" />
            </Array>
          </mxGeometry>
        </mxCell>
        <mxCell id="DgLKF9WfdBJmf-9WhJDX-74" value="&lt;font data-font-src=&quot;https://fonts.googleapis.com/css?family=Sarabun&quot; face=&quot;Sarabun&quot;&gt;เท็จ&lt;/font&gt;" style="edgeLabel;html=1;align=center;verticalAlign=middle;resizable=0;points=[];" parent="DgLKF9WfdBJmf-9WhJDX-73" vertex="1" connectable="0">
          <mxGeometry x="-0.0019" y="-2" relative="1" as="geometry">
            <mxPoint as="offset" />
          </mxGeometry>
        </mxCell>
        <mxCell id="DgLKF9WfdBJmf-9WhJDX-75" value="&lt;span&gt;แสดงข้ความ &quot;ไม่มีรายการเครื่องดื่มเพิ่มเติม&quot;&lt;/span&gt;" style="rounded=0;whiteSpace=wrap;html=1;fontFamily=Sarabun;fontSource=https%3A%2F%2Ffonts.googleapis.com%2Fcss%3Ffamily%3DSarabun;fontSize=8;" parent="mvioNwK95yMqdUQ73LqQ-36" vertex="1">
          <mxGeometry x="1110" y="529" width="100" height="40" as="geometry" />
        </mxCell>
        <mxCell id="DgLKF9WfdBJmf-9WhJDX-77" style="edgeStyle=orthogonalEdgeStyle;rounded=0;orthogonalLoop=1;jettySize=auto;html=1;exitX=0.5;exitY=1;exitDx=0;exitDy=0;entryX=0.5;entryY=0;entryDx=0;entryDy=0;" parent="mvioNwK95yMqdUQ73LqQ-36" target="DgLKF9WfdBJmf-9WhJDX-78" edge="1">
          <mxGeometry relative="1" as="geometry">
            <mxPoint x="680" y="450" as="sourcePoint" />
          </mxGeometry>
        </mxCell>
        <mxCell id="DgLKF9WfdBJmf-9WhJDX-78" value="&lt;span style=&quot;font-size: 12px;&quot;&gt;ยืนยัน&lt;/span&gt;" style="rounded=0;whiteSpace=wrap;html=1;fontFamily=Sarabun;fontSource=https%3A%2F%2Ffonts.googleapis.com%2Fcss%3Ffamily%3DSarabun;fontSize=8;" parent="mvioNwK95yMqdUQ73LqQ-36" vertex="1">
          <mxGeometry x="630" y="470" width="100" height="20" as="geometry" />
        </mxCell>
        <mxCell id="DgLKF9WfdBJmf-9WhJDX-79" style="edgeStyle=orthogonalEdgeStyle;rounded=0;orthogonalLoop=1;jettySize=auto;html=1;exitX=0.5;exitY=1;exitDx=0;exitDy=0;entryX=0.5;entryY=0;entryDx=0;entryDy=0;" parent="mvioNwK95yMqdUQ73LqQ-36" target="DgLKF9WfdBJmf-9WhJDX-80" edge="1">
          <mxGeometry relative="1" as="geometry">
            <mxPoint x="800" y="510" as="sourcePoint" />
          </mxGeometry>
        </mxCell>
        <mxCell id="DgLKF9WfdBJmf-9WhJDX-80" value="&lt;span style=&quot;font-size: 12px;&quot;&gt;ยืนยัน&lt;/span&gt;" style="rounded=0;whiteSpace=wrap;html=1;fontFamily=Sarabun;fontSource=https%3A%2F%2Ffonts.googleapis.com%2Fcss%3Ffamily%3DSarabun;fontSize=8;" parent="mvioNwK95yMqdUQ73LqQ-36" vertex="1">
          <mxGeometry x="750" y="530" width="100" height="20" as="geometry" />
        </mxCell>
        <mxCell id="DgLKF9WfdBJmf-9WhJDX-83" style="edgeStyle=orthogonalEdgeStyle;rounded=0;orthogonalLoop=1;jettySize=auto;html=1;exitX=0.5;exitY=1;exitDx=0;exitDy=0;entryX=0.5;entryY=0;entryDx=0;entryDy=0;" parent="mvioNwK95yMqdUQ73LqQ-36" target="DgLKF9WfdBJmf-9WhJDX-84" edge="1">
          <mxGeometry relative="1" as="geometry">
            <mxPoint x="920" y="568" as="sourcePoint" />
          </mxGeometry>
        </mxCell>
        <mxCell id="DgLKF9WfdBJmf-9WhJDX-84" value="&lt;span style=&quot;font-size: 12px;&quot;&gt;ยืนยัน&lt;/span&gt;" style="rounded=0;whiteSpace=wrap;html=1;fontFamily=Sarabun;fontSource=https%3A%2F%2Ffonts.googleapis.com%2Fcss%3Ffamily%3DSarabun;fontSize=8;" parent="mvioNwK95yMqdUQ73LqQ-36" vertex="1">
          <mxGeometry x="870" y="588" width="100" height="20" as="geometry" />
        </mxCell>
        <mxCell id="DgLKF9WfdBJmf-9WhJDX-85" style="edgeStyle=orthogonalEdgeStyle;rounded=0;orthogonalLoop=1;jettySize=auto;html=1;exitX=0.5;exitY=1;exitDx=0;exitDy=0;entryX=0.5;entryY=0;entryDx=0;entryDy=0;" parent="mvioNwK95yMqdUQ73LqQ-36" target="DgLKF9WfdBJmf-9WhJDX-86" edge="1">
          <mxGeometry relative="1" as="geometry">
            <mxPoint x="1040" y="629" as="sourcePoint" />
          </mxGeometry>
        </mxCell>
        <mxCell id="DgLKF9WfdBJmf-9WhJDX-86" value="&lt;span style=&quot;font-size: 12px;&quot;&gt;ยืนยัน&lt;/span&gt;" style="rounded=0;whiteSpace=wrap;html=1;fontFamily=Sarabun;fontSource=https%3A%2F%2Ffonts.googleapis.com%2Fcss%3Ffamily%3DSarabun;fontSize=8;" parent="mvioNwK95yMqdUQ73LqQ-36" vertex="1">
          <mxGeometry x="990" y="649" width="100" height="20" as="geometry" />
        </mxCell>
        <mxCell id="DgLKF9WfdBJmf-9WhJDX-105" style="edgeStyle=orthogonalEdgeStyle;rounded=0;orthogonalLoop=1;jettySize=auto;html=1;exitX=0.5;exitY=1;exitDx=0;exitDy=0;exitPerimeter=0;" parent="mvioNwK95yMqdUQ73LqQ-36" source="DgLKF9WfdBJmf-9WhJDX-94" edge="1">
          <mxGeometry relative="1" as="geometry">
            <mxPoint x="320" y="150" as="targetPoint" />
            <Array as="points">
              <mxPoint x="730" y="640" />
              <mxPoint x="650" y="640" />
              <mxPoint x="650" y="500" />
              <mxPoint x="500" y="500" />
              <mxPoint x="500" y="150" />
              <mxPoint x="345" y="150" />
            </Array>
          </mxGeometry>
        </mxCell>
        <mxCell id="DgLKF9WfdBJmf-9WhJDX-94" value="" style="strokeWidth=2;html=1;shape=mxgraph.flowchart.start_2;whiteSpace=wrap;" parent="mvioNwK95yMqdUQ73LqQ-36" vertex="1">
          <mxGeometry x="720" y="600" width="20" height="20" as="geometry" />
        </mxCell>
        <mxCell id="DgLKF9WfdBJmf-9WhJDX-99" style="edgeStyle=orthogonalEdgeStyle;rounded=0;orthogonalLoop=1;jettySize=auto;html=1;exitX=0.5;exitY=1;exitDx=0;exitDy=0;entryX=0;entryY=0.5;entryDx=0;entryDy=0;entryPerimeter=0;" parent="mvioNwK95yMqdUQ73LqQ-36" source="DgLKF9WfdBJmf-9WhJDX-78" target="DgLKF9WfdBJmf-9WhJDX-94" edge="1">
          <mxGeometry relative="1" as="geometry" />
        </mxCell>
        <mxCell id="DgLKF9WfdBJmf-9WhJDX-100" style="edgeStyle=orthogonalEdgeStyle;rounded=0;orthogonalLoop=1;jettySize=auto;html=1;exitX=0.5;exitY=1;exitDx=0;exitDy=0;entryX=0.145;entryY=0.145;entryDx=0;entryDy=0;entryPerimeter=0;" parent="mvioNwK95yMqdUQ73LqQ-36" source="DgLKF9WfdBJmf-9WhJDX-80" target="DgLKF9WfdBJmf-9WhJDX-94" edge="1">
          <mxGeometry relative="1" as="geometry" />
        </mxCell>
        <mxCell id="DgLKF9WfdBJmf-9WhJDX-102" style="edgeStyle=orthogonalEdgeStyle;rounded=0;orthogonalLoop=1;jettySize=auto;html=1;exitX=0.5;exitY=1;exitDx=0;exitDy=0;entryX=0.855;entryY=0.145;entryDx=0;entryDy=0;entryPerimeter=0;" parent="mvioNwK95yMqdUQ73LqQ-36" source="DgLKF9WfdBJmf-9WhJDX-84" target="DgLKF9WfdBJmf-9WhJDX-94" edge="1">
          <mxGeometry relative="1" as="geometry">
            <Array as="points">
              <mxPoint x="920" y="690" />
              <mxPoint x="770" y="690" />
              <mxPoint x="770" y="603" />
            </Array>
          </mxGeometry>
        </mxCell>
        <mxCell id="DgLKF9WfdBJmf-9WhJDX-103" style="edgeStyle=orthogonalEdgeStyle;rounded=0;orthogonalLoop=1;jettySize=auto;html=1;exitX=0.5;exitY=1;exitDx=0;exitDy=0;entryX=1;entryY=0.5;entryDx=0;entryDy=0;entryPerimeter=0;" parent="mvioNwK95yMqdUQ73LqQ-36" source="DgLKF9WfdBJmf-9WhJDX-86" target="DgLKF9WfdBJmf-9WhJDX-94" edge="1">
          <mxGeometry relative="1" as="geometry">
            <Array as="points">
              <mxPoint x="1040" y="750" />
              <mxPoint x="925" y="750" />
              <mxPoint x="925" y="710" />
              <mxPoint x="750" y="710" />
              <mxPoint x="750" y="610" />
            </Array>
          </mxGeometry>
        </mxCell>
        <mxCell id="DgLKF9WfdBJmf-9WhJDX-106" value="&lt;span style=&quot;font-size: 14px; text-align: left; text-wrap-mode: nowrap;&quot;&gt;เมล็ดทานตะวัน&lt;/span&gt;" style="rhombus;whiteSpace=wrap;html=1;fontFamily=Sarabun;fontSource=https%3A%2F%2Ffonts.googleapis.com%2Fcss%3Ffamily%3DSarabun;align=center;fontSize=8;" parent="mvioNwK95yMqdUQ73LqQ-36" vertex="1">
          <mxGeometry x="930" y="865" width="100" height="60" as="geometry" />
        </mxCell>
        <mxCell id="DgLKF9WfdBJmf-9WhJDX-109" style="edgeStyle=orthogonalEdgeStyle;rounded=0;orthogonalLoop=1;jettySize=auto;html=1;exitX=0.5;exitY=1;exitDx=0;exitDy=0;entryX=0.5;entryY=0;entryDx=0;entryDy=0;" parent="mvioNwK95yMqdUQ73LqQ-36" source="DgLKF9WfdBJmf-9WhJDX-112" target="DgLKF9WfdBJmf-9WhJDX-111" edge="1">
          <mxGeometry relative="1" as="geometry" />
        </mxCell>
        <mxCell id="DgLKF9WfdBJmf-9WhJDX-111" value="&lt;span style=&quot;font-size: 12px;&quot;&gt;เลือกจำนวน&lt;/span&gt;" style="rounded=0;whiteSpace=wrap;html=1;fontFamily=Sarabun;fontSource=https%3A%2F%2Ffonts.googleapis.com%2Fcss%3Ffamily%3DSarabun;fontSize=8;" parent="mvioNwK95yMqdUQ73LqQ-36" vertex="1">
          <mxGeometry x="930" y="1000" width="100" height="20" as="geometry" />
        </mxCell>
        <mxCell id="DgLKF9WfdBJmf-9WhJDX-112" value="&lt;span style=&quot;font-size: 12px;&quot;&gt;แสดงราคา&lt;/span&gt;" style="rounded=0;whiteSpace=wrap;html=1;fontFamily=Sarabun;fontSource=https%3A%2F%2Ffonts.googleapis.com%2Fcss%3Ffamily%3DSarabun;fontSize=8;" parent="mvioNwK95yMqdUQ73LqQ-36" vertex="1">
          <mxGeometry x="930" y="960" width="100" height="20" as="geometry" />
        </mxCell>
        <mxCell id="DgLKF9WfdBJmf-9WhJDX-113" value="" style="endArrow=classic;html=1;rounded=0;fillColor=#60a917;strokeColor=#2D7600;" parent="mvioNwK95yMqdUQ73LqQ-36" edge="1">
          <mxGeometry width="50" height="50" relative="1" as="geometry">
            <mxPoint x="979.71" y="930" as="sourcePoint" />
            <mxPoint x="979.71" y="960" as="targetPoint" />
            <Array as="points" />
          </mxGeometry>
        </mxCell>
        <mxCell id="DgLKF9WfdBJmf-9WhJDX-114" value="จริง" style="edgeLabel;html=1;align=center;verticalAlign=middle;resizable=0;points=[];fontFamily=Sarabun;fontSource=https%3A%2F%2Ffonts.googleapis.com%2Fcss%3Ffamily%3DSarabun;" parent="DgLKF9WfdBJmf-9WhJDX-113" vertex="1" connectable="0">
          <mxGeometry x="-0.4142" y="-1" relative="1" as="geometry">
            <mxPoint as="offset" />
          </mxGeometry>
        </mxCell>
        <mxCell id="DgLKF9WfdBJmf-9WhJDX-116" value="" style="endArrow=classic;html=1;rounded=0;fillColor=#d80073;strokeColor=#A50040;" parent="mvioNwK95yMqdUQ73LqQ-36" edge="1">
          <mxGeometry width="50" height="50" relative="1" as="geometry">
            <mxPoint x="1030" y="895" as="sourcePoint" />
            <mxPoint x="1100" y="925" as="targetPoint" />
            <Array as="points">
              <mxPoint x="1100" y="895" />
            </Array>
          </mxGeometry>
        </mxCell>
        <mxCell id="DgLKF9WfdBJmf-9WhJDX-117" value="&lt;font data-font-src=&quot;https://fonts.googleapis.com/css?family=Sarabun&quot; face=&quot;Sarabun&quot;&gt;เท็จ&lt;/font&gt;" style="edgeLabel;html=1;align=center;verticalAlign=middle;resizable=0;points=[];" parent="DgLKF9WfdBJmf-9WhJDX-116" vertex="1" connectable="0">
          <mxGeometry x="-0.0019" y="-2" relative="1" as="geometry">
            <mxPoint as="offset" />
          </mxGeometry>
        </mxCell>
        <mxCell id="DgLKF9WfdBJmf-9WhJDX-118" value="&lt;span style=&quot;font-size: 14px; text-align: left; text-wrap-mode: nowrap;&quot;&gt;ถั่วแปบ&lt;/span&gt;" style="rhombus;whiteSpace=wrap;html=1;fontFamily=Sarabun;fontSource=https%3A%2F%2Ffonts.googleapis.com%2Fcss%3Ffamily%3DSarabun;align=center;fontSize=8;" parent="mvioNwK95yMqdUQ73LqQ-36" vertex="1">
          <mxGeometry x="1050" y="930" width="100" height="60" as="geometry" />
        </mxCell>
        <mxCell id="DgLKF9WfdBJmf-9WhJDX-119" value="&lt;span style=&quot;font-size: 14px; text-align: left; text-wrap-mode: nowrap;&quot;&gt;จิ้นส้มหมก&lt;/span&gt;" style="rhombus;whiteSpace=wrap;html=1;fontFamily=Sarabun;fontSource=https%3A%2F%2Ffonts.googleapis.com%2Fcss%3Ffamily%3DSarabun;align=center;fontSize=8;" parent="mvioNwK95yMqdUQ73LqQ-36" vertex="1">
          <mxGeometry x="1170" y="990" width="100" height="60" as="geometry" />
        </mxCell>
        <mxCell id="DgLKF9WfdBJmf-9WhJDX-120" value="" style="endArrow=classic;html=1;rounded=0;fillColor=#d80073;strokeColor=#A50040;" parent="mvioNwK95yMqdUQ73LqQ-36" edge="1">
          <mxGeometry width="50" height="50" relative="1" as="geometry">
            <mxPoint x="1150" y="960" as="sourcePoint" />
            <mxPoint x="1220" y="990" as="targetPoint" />
            <Array as="points">
              <mxPoint x="1220" y="960" />
            </Array>
          </mxGeometry>
        </mxCell>
        <mxCell id="DgLKF9WfdBJmf-9WhJDX-121" value="&lt;font data-font-src=&quot;https://fonts.googleapis.com/css?family=Sarabun&quot; face=&quot;Sarabun&quot;&gt;เท็จ&lt;/font&gt;" style="edgeLabel;html=1;align=center;verticalAlign=middle;resizable=0;points=[];" parent="DgLKF9WfdBJmf-9WhJDX-120" vertex="1" connectable="0">
          <mxGeometry x="-0.0019" y="-2" relative="1" as="geometry">
            <mxPoint as="offset" />
          </mxGeometry>
        </mxCell>
        <mxCell id="DgLKF9WfdBJmf-9WhJDX-122" value="" style="endArrow=classic;html=1;rounded=0;fillColor=#d80073;strokeColor=#A50040;" parent="mvioNwK95yMqdUQ73LqQ-36" edge="1">
          <mxGeometry width="50" height="50" relative="1" as="geometry">
            <mxPoint x="1270" y="1020" as="sourcePoint" />
            <mxPoint x="1340" y="1050" as="targetPoint" />
            <Array as="points">
              <mxPoint x="1340" y="1020" />
            </Array>
          </mxGeometry>
        </mxCell>
        <mxCell id="DgLKF9WfdBJmf-9WhJDX-123" value="&lt;font data-font-src=&quot;https://fonts.googleapis.com/css?family=Sarabun&quot; face=&quot;Sarabun&quot;&gt;เท็จ&lt;/font&gt;" style="edgeLabel;html=1;align=center;verticalAlign=middle;resizable=0;points=[];" parent="DgLKF9WfdBJmf-9WhJDX-122" vertex="1" connectable="0">
          <mxGeometry x="-0.0019" y="-2" relative="1" as="geometry">
            <mxPoint as="offset" />
          </mxGeometry>
        </mxCell>
        <mxCell id="DgLKF9WfdBJmf-9WhJDX-128" value="&lt;span&gt;แสดงข้ความ &quot;ไม่มีรายการเครื่องดื่มเพิ่มเติม&quot;&lt;/span&gt;" style="rounded=0;whiteSpace=wrap;html=1;fontFamily=Sarabun;fontSource=https%3A%2F%2Ffonts.googleapis.com%2Fcss%3Ffamily%3DSarabun;fontSize=8;" parent="mvioNwK95yMqdUQ73LqQ-36" vertex="1">
          <mxGeometry x="1290" y="1050" width="100" height="40" as="geometry" />
        </mxCell>
        <mxCell id="DgLKF9WfdBJmf-9WhJDX-129" style="edgeStyle=orthogonalEdgeStyle;rounded=0;orthogonalLoop=1;jettySize=auto;html=1;exitX=0.5;exitY=1;exitDx=0;exitDy=0;entryX=0.5;entryY=0;entryDx=0;entryDy=0;" parent="mvioNwK95yMqdUQ73LqQ-36" source="DgLKF9WfdBJmf-9WhJDX-132" target="DgLKF9WfdBJmf-9WhJDX-131" edge="1">
          <mxGeometry relative="1" as="geometry" />
        </mxCell>
        <mxCell id="DgLKF9WfdBJmf-9WhJDX-131" value="&lt;span style=&quot;font-size: 12px;&quot;&gt;เลือกจำนวน&lt;/span&gt;" style="rounded=0;whiteSpace=wrap;html=1;fontFamily=Sarabun;fontSource=https%3A%2F%2Ffonts.googleapis.com%2Fcss%3Ffamily%3DSarabun;fontSize=8;" parent="mvioNwK95yMqdUQ73LqQ-36" vertex="1">
          <mxGeometry x="1050" y="1060" width="100" height="20" as="geometry" />
        </mxCell>
        <mxCell id="DgLKF9WfdBJmf-9WhJDX-132" value="&lt;span style=&quot;font-size: 12px;&quot;&gt;แสดงราคา&lt;/span&gt;" style="rounded=0;whiteSpace=wrap;html=1;fontFamily=Sarabun;fontSource=https%3A%2F%2Ffonts.googleapis.com%2Fcss%3Ffamily%3DSarabun;fontSize=8;" parent="mvioNwK95yMqdUQ73LqQ-36" vertex="1">
          <mxGeometry x="1050" y="1020" width="100" height="20" as="geometry" />
        </mxCell>
        <mxCell id="DgLKF9WfdBJmf-9WhJDX-133" value="" style="endArrow=classic;html=1;rounded=0;fillColor=#60a917;strokeColor=#2D7600;" parent="mvioNwK95yMqdUQ73LqQ-36" edge="1">
          <mxGeometry width="50" height="50" relative="1" as="geometry">
            <mxPoint x="1099.66" y="990" as="sourcePoint" />
            <mxPoint x="1099.66" y="1020" as="targetPoint" />
            <Array as="points" />
          </mxGeometry>
        </mxCell>
        <mxCell id="DgLKF9WfdBJmf-9WhJDX-134" value="จริง" style="edgeLabel;html=1;align=center;verticalAlign=middle;resizable=0;points=[];fontFamily=Sarabun;fontSource=https%3A%2F%2Ffonts.googleapis.com%2Fcss%3Ffamily%3DSarabun;" parent="DgLKF9WfdBJmf-9WhJDX-133" vertex="1" connectable="0">
          <mxGeometry x="-0.4142" y="-1" relative="1" as="geometry">
            <mxPoint as="offset" />
          </mxGeometry>
        </mxCell>
        <mxCell id="DgLKF9WfdBJmf-9WhJDX-135" value="" style="endArrow=classic;html=1;rounded=0;fillColor=#60a917;strokeColor=#2D7600;" parent="mvioNwK95yMqdUQ73LqQ-36" edge="1">
          <mxGeometry width="50" height="50" relative="1" as="geometry">
            <mxPoint x="1220" y="1055" as="sourcePoint" />
            <mxPoint x="1220" y="1085" as="targetPoint" />
            <Array as="points" />
          </mxGeometry>
        </mxCell>
        <mxCell id="DgLKF9WfdBJmf-9WhJDX-136" value="จริง" style="edgeLabel;html=1;align=center;verticalAlign=middle;resizable=0;points=[];fontFamily=Sarabun;fontSource=https%3A%2F%2Ffonts.googleapis.com%2Fcss%3Ffamily%3DSarabun;" parent="DgLKF9WfdBJmf-9WhJDX-135" vertex="1" connectable="0">
          <mxGeometry x="-0.4142" y="-1" relative="1" as="geometry">
            <mxPoint as="offset" />
          </mxGeometry>
        </mxCell>
        <mxCell id="DgLKF9WfdBJmf-9WhJDX-139" style="edgeStyle=orthogonalEdgeStyle;rounded=0;orthogonalLoop=1;jettySize=auto;html=1;exitX=0.5;exitY=1;exitDx=0;exitDy=0;entryX=0.5;entryY=0;entryDx=0;entryDy=0;" parent="mvioNwK95yMqdUQ73LqQ-36" source="DgLKF9WfdBJmf-9WhJDX-142" target="DgLKF9WfdBJmf-9WhJDX-141" edge="1">
          <mxGeometry relative="1" as="geometry" />
        </mxCell>
        <mxCell id="DgLKF9WfdBJmf-9WhJDX-141" value="&lt;span style=&quot;font-size: 12px;&quot;&gt;เลือกจำนวน&lt;/span&gt;" style="rounded=0;whiteSpace=wrap;html=1;fontFamily=Sarabun;fontSource=https%3A%2F%2Ffonts.googleapis.com%2Fcss%3Ffamily%3DSarabun;fontSize=8;" parent="mvioNwK95yMqdUQ73LqQ-36" vertex="1">
          <mxGeometry x="1170" y="1130" width="100" height="20" as="geometry" />
        </mxCell>
        <mxCell id="DgLKF9WfdBJmf-9WhJDX-142" value="&lt;span style=&quot;font-size: 12px;&quot;&gt;แสดงราคา&lt;/span&gt;" style="rounded=0;whiteSpace=wrap;html=1;fontFamily=Sarabun;fontSource=https%3A%2F%2Ffonts.googleapis.com%2Fcss%3Ffamily%3DSarabun;fontSize=8;" parent="mvioNwK95yMqdUQ73LqQ-36" vertex="1">
          <mxGeometry x="1170" y="1090" width="100" height="20" as="geometry" />
        </mxCell>
        <mxCell id="DgLKF9WfdBJmf-9WhJDX-143" value="" style="strokeWidth=2;html=1;shape=mxgraph.flowchart.start_2;whiteSpace=wrap;" parent="mvioNwK95yMqdUQ73LqQ-36" vertex="1">
          <mxGeometry x="1090" y="1165" width="20" height="20" as="geometry" />
        </mxCell>
        <mxCell id="DgLKF9WfdBJmf-9WhJDX-144" style="edgeStyle=orthogonalEdgeStyle;rounded=0;orthogonalLoop=1;jettySize=auto;html=1;exitX=0.5;exitY=1;exitDx=0;exitDy=0;entryX=0;entryY=0.5;entryDx=0;entryDy=0;entryPerimeter=0;" parent="mvioNwK95yMqdUQ73LqQ-36" source="DgLKF9WfdBJmf-9WhJDX-111" target="DgLKF9WfdBJmf-9WhJDX-143" edge="1">
          <mxGeometry relative="1" as="geometry" />
        </mxCell>
        <mxCell id="DgLKF9WfdBJmf-9WhJDX-145" style="edgeStyle=orthogonalEdgeStyle;rounded=0;orthogonalLoop=1;jettySize=auto;html=1;exitX=0.5;exitY=1;exitDx=0;exitDy=0;entryX=0.5;entryY=0;entryDx=0;entryDy=0;entryPerimeter=0;" parent="mvioNwK95yMqdUQ73LqQ-36" source="DgLKF9WfdBJmf-9WhJDX-131" target="DgLKF9WfdBJmf-9WhJDX-143" edge="1">
          <mxGeometry relative="1" as="geometry" />
        </mxCell>
        <mxCell id="DgLKF9WfdBJmf-9WhJDX-146" style="edgeStyle=orthogonalEdgeStyle;rounded=0;orthogonalLoop=1;jettySize=auto;html=1;exitX=0.5;exitY=1;exitDx=0;exitDy=0;entryX=1;entryY=0.5;entryDx=0;entryDy=0;entryPerimeter=0;" parent="mvioNwK95yMqdUQ73LqQ-36" source="DgLKF9WfdBJmf-9WhJDX-141" target="DgLKF9WfdBJmf-9WhJDX-143" edge="1">
          <mxGeometry relative="1" as="geometry" />
        </mxCell>
        <mxCell id="DgLKF9WfdBJmf-9WhJDX-147" value="" style="strokeWidth=2;html=1;shape=mxgraph.flowchart.start_2;whiteSpace=wrap;" parent="mvioNwK95yMqdUQ73LqQ-36" vertex="1">
          <mxGeometry x="1410" y="649" width="20" height="20" as="geometry" />
        </mxCell>
        <mxCell id="DgLKF9WfdBJmf-9WhJDX-148" style="edgeStyle=orthogonalEdgeStyle;rounded=0;orthogonalLoop=1;jettySize=auto;html=1;exitX=0.5;exitY=1;exitDx=0;exitDy=0;entryX=0;entryY=0.5;entryDx=0;entryDy=0;entryPerimeter=0;" parent="mvioNwK95yMqdUQ73LqQ-36" source="DgLKF9WfdBJmf-9WhJDX-75" target="DgLKF9WfdBJmf-9WhJDX-147" edge="1">
          <mxGeometry relative="1" as="geometry" />
        </mxCell>
        <mxCell id="DgLKF9WfdBJmf-9WhJDX-149" style="edgeStyle=orthogonalEdgeStyle;rounded=0;orthogonalLoop=1;jettySize=auto;html=1;exitX=0.5;exitY=1;exitDx=0;exitDy=0;entryX=1;entryY=0.5;entryDx=0;entryDy=0;entryPerimeter=0;" parent="mvioNwK95yMqdUQ73LqQ-36" source="DgLKF9WfdBJmf-9WhJDX-128" target="DgLKF9WfdBJmf-9WhJDX-147" edge="1">
          <mxGeometry relative="1" as="geometry" />
        </mxCell>
        <mxCell id="DgLKF9WfdBJmf-9WhJDX-150" style="edgeStyle=orthogonalEdgeStyle;rounded=0;orthogonalLoop=1;jettySize=auto;html=1;exitX=0.5;exitY=1;exitDx=0;exitDy=0;exitPerimeter=0;" parent="mvioNwK95yMqdUQ73LqQ-36" source="DgLKF9WfdBJmf-9WhJDX-147" edge="1">
          <mxGeometry relative="1" as="geometry">
            <mxPoint x="320" y="110" as="targetPoint" />
            <Array as="points">
              <mxPoint x="1420" y="689" />
              <mxPoint x="1550" y="689" />
              <mxPoint x="1550" y="110" />
              <mxPoint x="420" y="110" />
            </Array>
          </mxGeometry>
        </mxCell>
        <mxCell id="DgLKF9WfdBJmf-9WhJDX-151" style="edgeStyle=orthogonalEdgeStyle;rounded=0;orthogonalLoop=1;jettySize=auto;html=1;exitX=0.5;exitY=1;exitDx=0;exitDy=0;exitPerimeter=0;entryX=0.855;entryY=0.855;entryDx=0;entryDy=0;entryPerimeter=0;" parent="mvioNwK95yMqdUQ73LqQ-36" source="DgLKF9WfdBJmf-9WhJDX-143" target="DgLKF9WfdBJmf-9WhJDX-94" edge="1">
          <mxGeometry relative="1" as="geometry" />
        </mxCell>
        <mxCell id="DgLKF9WfdBJmf-9WhJDX-154" style="edgeStyle=orthogonalEdgeStyle;rounded=0;orthogonalLoop=1;jettySize=auto;html=1;exitX=0.5;exitY=1;exitDx=0;exitDy=0;entryX=1;entryY=0;entryDx=0;entryDy=0;fillColor=#d80073;strokeColor=#A50040;" parent="mvioNwK95yMqdUQ73LqQ-36" source="DgLKF9WfdBJmf-9WhJDX-153" target="pbdgj4b4dvky6A1W4cZq-8" edge="1">
          <mxGeometry relative="1" as="geometry">
            <Array as="points">
              <mxPoint x="575" y="690" />
              <mxPoint x="680" y="690" />
              <mxPoint x="680" y="1574" />
            </Array>
          </mxGeometry>
        </mxCell>
        <mxCell id="DgLKF9WfdBJmf-9WhJDX-153" value="แสดงข้อความ &quot;ยกเลิกสำเร็จ&quot;" style="rounded=0;whiteSpace=wrap;html=1;fontFamily=Sarabun;fontSource=https%3A%2F%2Ffonts.googleapis.com%2Fcss%3Ffamily%3DSarabun;" parent="mvioNwK95yMqdUQ73LqQ-36" vertex="1">
          <mxGeometry x="520" y="610" width="110" height="50" as="geometry" />
        </mxCell>
        <mxCell id="DgLKF9WfdBJmf-9WhJDX-160" style="edgeStyle=orthogonalEdgeStyle;rounded=0;orthogonalLoop=1;jettySize=auto;html=1;exitX=0.5;exitY=1;exitDx=0;exitDy=0;entryX=0.5;entryY=0;entryDx=0;entryDy=0;fillColor=#d80073;strokeColor=#A50040;" parent="mvioNwK95yMqdUQ73LqQ-36" source="DgLKF9WfdBJmf-9WhJDX-155" target="DgLKF9WfdBJmf-9WhJDX-159" edge="1">
          <mxGeometry relative="1" as="geometry" />
        </mxCell>
        <mxCell id="DgLKF9WfdBJmf-9WhJDX-155" value="&lt;font&gt;แจ้งเตือน: โปรดติดต่อเจ้าหน้าที่ดูแลเครื่อง&amp;nbsp;&lt;/font&gt;&lt;div&gt;&lt;span&gt;โทร xxx-xxx-xxxx&lt;/span&gt;&lt;/div&gt;" style="shape=parallelogram;perimeter=parallelogramPerimeter;whiteSpace=wrap;html=1;fixedSize=1;fontFamily=Sarabun;fontSource=https%3A%2F%2Ffonts.googleapis.com%2Fcss%3Ffamily%3DSarabun;fontSize=6;" parent="mvioNwK95yMqdUQ73LqQ-36" vertex="1">
          <mxGeometry x="140" y="1130" width="100" height="30" as="geometry" />
        </mxCell>
        <mxCell id="DgLKF9WfdBJmf-9WhJDX-159" value="&lt;span style=&quot;font-size: 8px;&quot;&gt;คืนเงินที่ใส่เข้ามา&lt;/span&gt;" style="rounded=0;whiteSpace=wrap;html=1;fontFamily=Sarabun;fontSource=https%3A%2F%2Ffonts.googleapis.com%2Fcss%3Ffamily%3DSarabun;" parent="mvioNwK95yMqdUQ73LqQ-36" vertex="1">
          <mxGeometry x="150" y="1210" width="80" height="30" as="geometry" />
        </mxCell>
        <mxCell id="DgLKF9WfdBJmf-9WhJDX-170" style="edgeStyle=orthogonalEdgeStyle;rounded=0;orthogonalLoop=1;jettySize=auto;html=1;exitX=0.5;exitY=1;exitDx=0;exitDy=0;entryX=0.5;entryY=0;entryDx=0;entryDy=0;fillColor=#60a917;strokeColor=#2D7600;" parent="mvioNwK95yMqdUQ73LqQ-36" source="yJkIPhQDSD9A7GnSrkzE-106" target="yJkIPhQDSD9A7GnSrkzE-114" edge="1">
          <mxGeometry relative="1" as="geometry">
            <mxPoint x="65" y="1270" as="sourcePoint" />
            <Array as="points">
              <mxPoint x="65" y="1280" />
              <mxPoint x="307" y="1280" />
            </Array>
          </mxGeometry>
        </mxCell>
        <mxCell id="DgLKF9WfdBJmf-9WhJDX-169" style="edgeStyle=orthogonalEdgeStyle;rounded=0;orthogonalLoop=1;jettySize=auto;html=1;entryX=0;entryY=0;entryDx=0;entryDy=0;fillColor=#d80073;strokeColor=#A50040;exitX=0.5;exitY=1;exitDx=0;exitDy=0;" parent="mvioNwK95yMqdUQ73LqQ-36" source="DgLKF9WfdBJmf-9WhJDX-159" target="pbdgj4b4dvky6A1W4cZq-8" edge="1">
          <mxGeometry relative="1" as="geometry">
            <mxPoint x="190.0689655172414" y="1350" as="sourcePoint" />
            <Array as="points">
              <mxPoint x="190" y="1530" />
              <mxPoint x="430" y="1530" />
            </Array>
          </mxGeometry>
        </mxCell>
        <mxCell id="DgLKF9WfdBJmf-9WhJDX-172" value="&lt;span style=&quot;font-size: 8px;&quot;&gt;หมดเวลา&lt;/span&gt;" style="rounded=0;whiteSpace=wrap;html=1;fontFamily=Sarabun;fontSource=https%3A%2F%2Ffonts.googleapis.com%2Fcss%3Ffamily%3DSarabun;" parent="mvioNwK95yMqdUQ73LqQ-36" vertex="1">
          <mxGeometry x="140" y="705" width="120" height="30" as="geometry" />
        </mxCell>
        <mxCell id="mvioNwK95yMqdUQ73LqQ-70" value="&lt;font data-font-src=&quot;https://fonts.googleapis.com/css?family=Sarabun&quot; face=&quot;Sarabun&quot;&gt;โจทย์ปัญหา&lt;/font&gt;" style="swimlane;whiteSpace=wrap;html=1;" parent="WIyWlLk6GJQsqaUBKTNV-1" vertex="1">
          <mxGeometry x="-1560" y="330" width="640" height="240" as="geometry" />
        </mxCell>
        <mxCell id="mvioNwK95yMqdUQ73LqQ-71" value="&lt;font data-font-src=&quot;https://fonts.googleapis.com/css?family=Sarabun&quot; face=&quot;Sarabun&quot; style=&quot;font-size: 14px;&quot;&gt;จงเขียน Flowchart เพื่อแสดงขั้นตอนการทำงาน ของเครื่องขายน้ำอัตโนมัติที่ชื่อว่า &quot;ตะพาบลอย&quot;&lt;br&gt;โดยจะต้องมีสินค้าดังนี้&lt;br&gt;&lt;u&gt;ประเภทน้ำ&lt;span style=&quot;white-space: pre;&quot;&gt;&#x9;&lt;/span&gt;&lt;span style=&quot;white-space: pre;&quot;&gt;&#x9;&lt;/span&gt;&lt;span style=&quot;white-space: pre;&quot;&gt;&#x9;&lt;/span&gt;&lt;span style=&quot;white-space: pre;&quot;&gt;&#x9;&lt;/span&gt;&lt;span style=&quot;white-space: pre;&quot;&gt;&#x9;&lt;/span&gt;&lt;span style=&quot;white-space: pre;&quot;&gt;&#x9;&lt;span style=&quot;white-space: pre;&quot;&gt;&#x9;&lt;/span&gt;ข&lt;/span&gt;นม&lt;/u&gt;&lt;br&gt;&lt;span style=&quot;white-space: pre;&quot;&gt;&#x9;&lt;/span&gt;- โค้ก กระป๋องละ 10 บาท&lt;span style=&quot;white-space: pre;&quot;&gt;&#x9;&lt;/span&gt;&lt;span style=&quot;white-space: pre;&quot;&gt;&#x9;&lt;/span&gt;&lt;span style=&quot;white-space: pre;&quot;&gt;&#x9;&lt;/span&gt;&lt;span style=&quot;white-space: pre;&quot;&gt;&#x9;&lt;/span&gt;- เมล็ดทานตะวัน 13 บาท&lt;br&gt;&lt;span style=&quot;white-space: pre;&quot;&gt;&#x9;&lt;/span&gt;- น้ำเขียว กระป๋องละ 12 บาท&lt;span style=&quot;white-space: pre;&quot;&gt;&#x9;&lt;/span&gt;&lt;span style=&quot;white-space: pre;&quot;&gt;&#x9;&lt;/span&gt;&lt;span style=&quot;white-space: pre;&quot;&gt;&#x9;&lt;/span&gt;- ถั่วแปบ 20 บาท&lt;br&gt;&lt;span style=&quot;white-space: pre;&quot;&gt;&#x9;&lt;/span&gt;- อเมริกาโน่ 30 บาท&lt;span style=&quot;white-space: pre;&quot;&gt;&#x9;&lt;/span&gt;&lt;span style=&quot;white-space: pre;&quot;&gt;&#x9;&lt;/span&gt;&lt;span style=&quot;white-space: pre;&quot;&gt;&#x9;&lt;/span&gt;&lt;span style=&quot;white-space: pre;&quot;&gt;&#x9;&lt;/span&gt;&lt;span style=&quot;white-space: pre;&quot;&gt;&#x9;&lt;/span&gt;- จิ้นส้มหมก 15 บาท&lt;br&gt;&lt;span style=&quot;white-space: pre;&quot;&gt;&#x9;&lt;/span&gt;- ลาเต้ หวานเจี๊ยบ 35 บาท&lt;span style=&quot;white-space: pre;&quot;&gt;&#x9;&lt;/span&gt;&lt;br&gt;&lt;br&gt;&lt;u&gt;สิ่งที่ระบบควรจะทำได้&lt;/u&gt;&lt;br&gt;&lt;span style=&quot;white-space: pre;&quot;&gt;&#x9;&lt;/span&gt;- ลูกค้าเลือกสินค้า, ระบบจะต้องรวมยอดขาย และรวมรายการสินค้าทั้งหมดที่ลูกค้าเลือก&lt;br&gt;&lt;span style=&quot;white-space: pre;&quot;&gt;&#x9;&lt;/span&gt;- สรุปยอดว่าเหลือเงินในตู้อีกเท่าไหร่ เหลือเหรียญอะไรบ้าง? ธนบัตรอะไรบ้าง? อย่างละเท่าไหร่?&lt;br&gt;&lt;br&gt;&lt;br&gt;&lt;/font&gt;" style="text;html=1;align=left;verticalAlign=middle;resizable=0;points=[];autosize=1;strokeColor=none;fillColor=none;fontSize=14;" parent="mvioNwK95yMqdUQ73LqQ-70" vertex="1">
          <mxGeometry x="25" y="30" width="580" height="240" as="geometry" />
        </mxCell>
        <mxCell id="1EU9zwQX3X6W5CgyfDkg-4" style="edgeStyle=orthogonalEdgeStyle;rounded=0;orthogonalLoop=1;jettySize=auto;html=1;" parent="mvioNwK95yMqdUQ73LqQ-70" source="mvioNwK95yMqdUQ73LqQ-71" target="mvioNwK95yMqdUQ73LqQ-71" edge="1">
          <mxGeometry relative="1" as="geometry" />
        </mxCell>
      </root>
    </mxGraphModel>
  </diagram>
</mxfile>
